<?xml version="1.0" encoding="utf-8"?>
<!-- Generator: Adobe Illustrator 16.0.0, SVG Export Plug-In . SVG Version: 6.00 Build 0)  -->
<!DOCTYPE svg PUBLIC "-//W3C//DTD SVG 1.1//EN" "http://www.w3.org/Graphics/SVG/1.1/DTD/svg11.dtd">
<svg version="1.1" id="图层_1" xmlns="http://www.w3.org/2000/svg" xmlns:xlink="http://www.w3.org/1999/xlink" x="0px" y="0px"
	 width="730px" height="212px" viewBox="0 0 730 212" enable-background="new 0 0 730 212" xml:space="preserve">
<g>
	<g>
		<path fill-rule="evenodd" clip-rule="evenodd" fill="#0A9FDC" d="M162.615,131.539c-7.205,0-13.847-0.061-20.487,0.021
			c-4.044,0.051-7.367,3.088-7.914,6.978c-0.532,3.782,1.854,7.545,5.552,8.771c1.21,0.401,2.461,0.394,3.71,0.395
			c7.113,0.003,14.227,0.06,21.338-0.038c1.867-0.026,2.614,0.377,2.546,2.423c-0.139,4.108-0.021,4.112-4.063,4.112
			c-6.487,0-12.975,0.007-19.462-0.005c-1.495-0.003-2.972,0.107-4.38,0.632c-3.575,1.331-5.799,5.074-5.229,8.751
			c0.602,3.879,3.935,6.872,7.994,6.914c7.58,0.078,15.164,0.078,22.744-0.007c1.754-0.02,2.45,0.323,2.395,2.272
			c-0.146,5.076-0.083,10.16-0.025,15.24c0.014,1.275-0.296,1.77-1.684,1.766c-21.025-0.055-42.063,0.403-63.073-0.183
			c-29.465-0.822-54.246-24.655-57.145-54.069c-3.285-33.335,19.782-62.42,52.928-66.662c3.246-0.416,6.55-0.829,9.814-0.313
			c1.773,0.279,2.392-0.392,3.066-1.899c8.555-19.115,22.747-32.107,42.812-38.183c33.289-10.078,68.708,6.981,81.828,39.195
			c0.821,2.015,1.509,2.571,3.817,2.114c33.36-6.604,64.518,14.15,71.542,47.518c6.938,32.955-16.115,66.317-49.364,71.625
			c-6.154,0.982-12.308,0.768-18.464,0.8c-16.805,0.088-33.609-0.02-50.414,0.09c-2.251,0.015-2.664-0.699-2.606-2.729
			c0.14-4.842,0.122-9.692,0.004-14.535c-0.041-1.69,0.495-2.059,2.102-2.045c8.754,0.073,17.508,0.07,26.262,0.004
			c3.647-0.026,6.752-2.449,7.727-5.76c0.998-3.39-0.337-7.088-3.285-9.053c-1.76-1.172-3.742-1.483-5.811-1.481
			c-8.207,0.009-16.414-0.042-24.621,0.04c-1.738,0.018-2.447-0.302-2.384-2.257c0.139-4.271,0.022-4.273,4.331-4.275
			c8.051-0.004,16.103,0.067,24.151-0.045c4.335-0.06,7.503-3.185,7.941-7.439c0.382-3.707-2.234-7.424-6.057-8.407
			c-1.112-0.286-2.32-0.271-3.485-0.275c-6.217-0.024-12.433-0.012-19.083-0.012c9.59-16.355,18.968-32.348,28.336-48.323
			c-0.539-0.758-1.217-0.433-1.771-0.436c-5.239-0.024-10.452,0.209-15.604,1.329c-4.975,1.08-8.985,3.606-11.807,7.813
			c-5.134,7.651-10.146,15.384-15.212,23.082c-0.465,0.706-0.942,1.403-1.578,2.35c-0.59-0.828-1.089-1.473-1.53-2.153
			c-4.544-7.013-9.185-13.966-13.584-21.067c-4.06-6.555-9.887-9.984-17.44-10.757c-4.414-0.451-8.829-0.775-13.719-0.505
			C143.738,99.116,153.053,115.113,162.615,131.539z"/>
	</g>
	<g>
		<g>
			<path fill="#0A9FDC" d="M331.865,113.788c8.67-1.258,16.616-3.263,23.84-6.012l2.657,5.243
				c-6.944,3.263-14.611,6.036-23.001,8.319C334.662,119.568,333.496,117.052,331.865,113.788z M396.884,112.88
				c-3.543,1.725-7.598,3.473-12.165,5.243c5.127,2.657,10.837,4.404,17.129,5.243c-1.911,2.844-3.846,5.71-5.803,8.6
				c-11.839-3.683-20.135-8.6-24.889-14.751v15.59h-8.948v-11.396c-8.157,5.22-16.453,9.205-24.89,11.955
				c-1.445-2.61-2.913-5.221-4.404-7.83c10.58-2.471,19.343-5.942,26.287-10.417l3.007,4.964v-12.864
				c-7.645,0.467-15.475,0.862-23.491,1.188c-0.56-2.144-1.375-4.707-2.446-7.69c7.083-0.047,13.749-0.187,19.994-0.42v-3.984
				c-7.597,0.886-15.24,1.818-22.931,2.797l-0.909-6.712c1.445-0.14,2.89-0.279,4.335-0.42V72.471h-3.566v-6.991h34.117v6.991
				h-3.006v16.22c1.165-0.14,2.33-0.303,3.495-0.489c-0.093,0.886-0.163,1.748-0.21,2.586c3.403-1.165,6.479-2.517,9.229-4.055
				c-3.684-2.609-6.759-4.776-9.229-6.501l4.476-5.594h-2.308v-7.551h28.943v6.642c-1.91,4.754-4.684,8.973-8.319,12.654
				c3.402,2.237,6.782,4.475,10.138,6.712l-5.384,6.502c-0.327-0.233-4.078-2.866-11.256-7.9c-3.589,2.471-7.737,4.592-12.444,6.362
				c-1.166-1.958-2.47-3.962-3.915-6.013c0,1.071,0.047,2.074,0.14,3.006c-1.118,0.141-2.237,0.28-3.355,0.42v4.475
				c9.788-0.56,18.316-1.398,25.588-2.517l1.957,7.55c-6.618,0.606-13.376,1.142-20.274,1.608c2.005,2.61,4.147,4.894,6.433,6.852
				c4.939-1.958,9.647-4.357,14.122-7.201L396.884,112.88z M344.8,75.337h11.465v-2.866H344.8V75.337z M344.8,82.748h11.465v-2.866
				H344.8V82.748z M356.265,89.67v-2.447H344.8v3.774C348.714,90.578,352.536,90.136,356.265,89.67z M383.53,81.908
				c2.378-2.144,4.312-4.566,5.804-7.271h-17.129C376.027,77.062,379.802,79.485,383.53,81.908z"/>
			<path fill="#0A9FDC" d="M404.295,120.85h28.943v-10.836h-22.722v-8.459h22.722v-6.572h-24.47v-8.39h59.006v8.39h-24.189v6.572
				h22.442v8.459h-8.949c2.144,1.911,4.451,4.102,6.921,6.571l-5.033,4.265h13.423v8.529h-68.094V120.85z M470.711,84.636h-9.787
				v-4.965H415.76v4.965h-9.787V70.933h26.986c-0.979-2.47-1.842-4.591-2.587-6.362l12.024-1.188
				c0.699,1.911,1.515,4.429,2.447,7.551h25.867V84.636z M448.619,113.858l4.544-3.845h-9.578v10.836h11.955
				C453.163,118.287,450.856,115.956,448.619,113.858z"/>
			<path fill="#0A9FDC" d="M476.584,88.97h67.115v9.648h-32.474c-3.449,5.011-8.892,11.604-16.324,19.785
				c9.81-0.07,19.26-0.35,28.349-0.84l-9.473-11.675l8.389-5.104c9.182,10.347,16.337,18.97,21.463,25.867l-9.157,5.873
				c-1.026-1.538-2.343-3.403-3.951-5.593c-27.452,0.909-43.218,1.887-47.295,2.936l-4.475-9.298
				c7.248-5.942,13.679-13.26,19.296-21.952h-21.463V88.97z M483.016,67.297h54.252v9.648h-54.252V67.297z"/>
			<path fill="#0A9FDC" d="M573.412,107.986c0.372,4.334,0.77,7.783,1.188,10.347c-8.948,5.825-14.635,10.067-17.059,12.724
				l-5.173-6.852c1.165-1.397,1.747-3.355,1.747-5.872V95.891h-7.131v-9.088h16.43v27.615
				C565.325,113.299,568.658,111.155,573.412,107.986z M559.01,63.313c3.637,4.894,6.712,9.229,9.229,13.004l-8.948,5.383
				c-2.284-4.102-5.104-8.669-8.46-13.703L559.01,63.313z M569.987,84.636h17.757V63.382h10.486v21.254h17.898v9.368H598.23v38.451
				h-10.486V94.004h-17.757V84.636z"/>
			<path fill="#0A9FDC" d="M629.412,119.731v-11.78c-2.074,0.886-4.335,1.736-6.781,2.552c-1.119-2.237-2.564-4.685-4.335-7.341
				c8.412-2.074,14.169-4.801,17.269-8.18h-13.703l2.656-16.779h16.221c0.046-1.071,0.069-2.377,0.069-3.915h-18.667v-6.432h18.667
				v-4.614h8.669v4.614h8.739v-4.614h8.669v4.614h16.499v16.779h-16.499v3.915h19.156c-0.093,3.658-0.263,6.787-0.507,9.385
				c-0.245,2.6-0.944,4.498-2.098,5.698s-2.896,1.848-5.227,1.94v12.759h-8.809v-10.837h-31.181v12.235H629.412z M649.477,109.385
				h8.949c-0.163,2.563-0.56,4.882-1.189,6.955c8.622,2.378,18.364,5.326,29.225,8.844l-4.265,7.621
				c-8.646-3.263-18.12-6.537-28.42-9.822c-4.125,5.104-13.831,8.331-29.118,9.683c-1.026-2.564-2.285-5.36-3.775-8.39
				c10.113-0.56,17.367-1.788,21.76-3.688S649.313,114.954,649.477,109.385z M631.789,84.636l-0.77,3.915h8.18
				c0.35-1.165,0.652-2.47,0.909-3.915H631.789z M670.59,98.967c3.496,0.117,5.447,0.054,5.855-0.192
				c0.408-0.244,0.711-0.658,0.909-1.24c0.197-0.583,0.297-1.434,0.297-2.552h-10.767v5.313h-8.669v-5.313h-12.515
				c-1.725,2.89-3.473,5.033-5.243,6.432h30.901L670.59,98.967z M648.113,88.551h10.103v-3.915h-9.334
				C648.672,86.034,648.416,87.339,648.113,88.551z M649.406,78.203h8.81v-3.915h-8.739
				C649.477,75.127,649.453,76.433,649.406,78.203z M675.135,78.203v-3.915h-8.25v3.915H675.135z"/>
		</g>
		<g>
			<path fill="#444444" d="M343.233,170.507c0,3-0.692,5.302-2.074,6.903c-1.383,1.604-3.364,2.404-5.944,2.404
				c-1.143,0-2.203-0.195-3.181-0.586v-4.559c0.841,0.635,1.798,0.952,2.873,0.952c2.325,0,3.489-1.763,3.489-5.291v-13.617h4.837
				V170.507z"/>
			<path fill="#444444" d="M366.583,169.656c0,6.772-3.146,10.158-9.439,10.158c-6.079,0-9.117-3.298-9.117-9.895v-13.206h4.852
				v13.235c0,3.782,1.49,5.673,4.471,5.673c2.932,0,4.397-1.822,4.397-5.467v-13.441h4.837V169.656z"/>
			<path fill="#444444" d="M371.566,179.419v-22.705h8.063c2.472,0,4.377,0.469,5.717,1.407c1.338,0.938,2.008,2.238,2.008,3.898
				c0,1.231-0.416,2.312-1.246,3.24c-0.831,0.928-1.876,1.568-3.137,1.92v0.059c1.583,0.195,2.86,0.781,3.833,1.759
				c0.972,0.978,1.458,2.204,1.458,3.679c0,2.063-0.732,3.701-2.198,4.918s-3.47,1.825-6.01,1.825H371.566z M376.404,160.319v5.614
				h2.301c1.104,0,1.974-0.264,2.609-0.792c0.635-0.527,0.952-1.265,0.952-2.213c0-1.739-1.271-2.609-3.811-2.609H376.404z
				 M376.404,169.583v6.229h2.873c1.221,0,2.176-0.283,2.865-0.85c0.688-0.566,1.033-1.354,1.033-2.36
				c0-0.957-0.342-1.7-1.026-2.228c-0.684-0.527-1.656-0.792-2.917-0.792H376.404z"/>
			<path fill="#444444" d="M411.788,179.419h-5.276l-1.701-5.204h-8.252l-1.671,5.204h-5.248l8.312-22.705h5.688L411.788,179.419z
				 M403.668,170.478l-2.58-7.871c-0.166-0.499-0.283-1.158-0.352-1.979h-0.133c-0.059,0.665-0.19,1.305-0.396,1.921l-2.594,7.93
				H403.668z"/>
			<path fill="#444444" d="M412.756,168.367c0-3.558,1.037-6.452,3.114-8.686c2.076-2.232,4.819-3.35,8.23-3.35
				c3.244,0,5.855,1.081,7.835,3.24c1.979,2.159,2.968,4.935,2.968,8.325c0,3.538-1.028,6.408-3.085,8.611
				c-2.058,2.204-4.752,3.306-8.084,3.306c-3.254,0-5.897-1.067-7.93-3.203C413.771,174.477,412.756,171.729,412.756,168.367z
				 M417.842,168.103c0,2.209,0.532,4.015,1.598,5.416c1.064,1.403,2.525,2.104,4.383,2.104c1.896,0,3.371-0.671,4.427-2.015
				s1.583-3.149,1.583-5.417c0-2.364-0.514-4.233-1.539-5.606c-1.026-1.373-2.473-2.06-4.339-2.06c-1.896,0-3.389,0.704-4.478,2.111
				C418.387,164.043,417.842,165.865,417.842,168.103z"/>
			<path fill="#444444" d="M443.581,171.504v7.915h-4.837v-22.705h7.813c5.647,0,8.473,2.394,8.473,7.183
				c0,2.325-0.854,4.189-2.559,5.592s-3.838,2.074-6.397,2.016H443.581z M443.581,160.466v7.329h2.096
				c2.844,0,4.266-1.235,4.266-3.708c0-2.414-1.407-3.621-4.222-3.621H443.581z"/>
			<path fill="#444444" d="M476.195,179.419h-5.277l-1.7-5.204h-8.253l-1.671,5.204h-5.247l8.311-22.705h5.688L476.195,179.419z
				 M468.074,170.478l-2.58-7.871c-0.166-0.499-0.283-1.158-0.352-1.979h-0.132c-0.059,0.665-0.19,1.305-0.396,1.921l-2.595,7.93
				H468.074z"/>
			<path fill="#444444" d="M493.506,156.714l-7.417,14.599v8.106h-4.837V171.4l-7.212-14.687h5.526l3.811,8.677
				c0.078,0.177,0.259,0.772,0.543,1.789h0.059c0.117-0.685,0.278-1.266,0.483-1.744l3.913-8.722H493.506z"/>
			<path fill="#444444" d="M491.395,177.293c0-0.732,0.279-1.334,0.836-1.803s1.221-0.703,1.993-0.703
				c0.782,0,1.441,0.239,1.979,0.718c0.537,0.479,0.806,1.075,0.806,1.788c0,0.753-0.269,1.361-0.806,1.825
				c-0.538,0.464-1.217,0.696-2.038,0.696c-0.762,0-1.414-0.239-1.956-0.718C491.666,178.617,491.395,178.017,491.395,177.293z"/>
			<path fill="#444444" d="M517.325,178.598c-1.652,0.812-3.807,1.217-6.465,1.217c-3.42,0-6.134-1.023-8.142-3.07
				c-2.009-2.048-3.013-4.776-3.013-8.187c0-3.587,1.121-6.521,3.364-8.803c2.242-2.281,5.138-3.423,8.685-3.423
				c2.218,0,4.075,0.289,5.57,0.865v4.676c-1.535-0.898-3.274-1.349-5.219-1.349c-2.218,0-3.992,0.709-5.32,2.126
				c-1.329,1.417-1.994,3.269-1.994,5.555c0,2.229,0.631,4.021,1.892,5.38c1.26,1.358,2.965,2.037,5.115,2.037
				c2.022,0,3.864-0.488,5.526-1.466V178.598z"/>
			<path fill="#444444" d="M519.523,168.367c0-3.558,1.038-6.452,3.115-8.686c2.076-2.232,4.819-3.35,8.23-3.35
				c3.243,0,5.855,1.081,7.834,3.24s2.969,4.935,2.969,8.325c0,3.538-1.029,6.408-3.086,8.611c-2.057,2.204-4.752,3.306-8.084,3.306
				c-3.254,0-5.897-1.067-7.93-3.203C520.539,174.477,519.523,171.729,519.523,168.367z M524.609,168.103
				c0,2.209,0.533,4.015,1.598,5.416c1.065,1.403,2.526,2.104,4.383,2.104c1.896,0,3.372-0.671,4.427-2.015
				c1.056-1.344,1.583-3.149,1.583-5.417c0-2.364-0.513-4.233-1.539-5.606c-1.025-1.373-2.473-2.06-4.338-2.06
				c-1.896,0-3.39,0.704-4.479,2.111C525.154,164.043,524.609,165.865,524.609,168.103z"/>
			<path fill="#444444" d="M566.297,179.419v-13.778c0-1.271,0.063-2.868,0.19-4.793h-0.117c-0.293,1.456-0.527,2.428-0.704,2.916
				l-5.599,15.655h-3.855l-5.672-15.509c-0.138-0.37-0.377-1.392-0.719-3.063h-0.132c0.127,1.905,0.19,3.815,0.19,5.73v12.841
				h-4.368v-22.705h7.036l4.896,13.72c0.41,1.134,0.689,2.198,0.836,3.195h0.103c0.303-1.241,0.615-2.316,0.938-3.225l4.911-13.69
				h6.845v22.705H566.297z"/>
		</g>
	</g>
</g>
<g>
</g>
<g>
</g>
<g>
</g>
<g>
</g>
<g>
</g>
<g>
</g>
</svg>
