<?xml version="1.0" standalone="no"?>
<!DOCTYPE svg PUBLIC "-//W3C//DTD SVG 1.1//EN" "http://www.w3.org/Graphics/SVG/1.1/DTD/svg11.dtd" >
<svg xmlns="http://www.w3.org/2000/svg">
<metadata>
Created by FontForge 20120731 at Mon May  9 13:52:59 2016
 By admin
</metadata>
<defs>
<font id="iconfont" horiz-adv-x="1024" >
  <font-face 
    font-family="iconfont"
    font-weight="500"
    font-stretch="normal"
    units-per-em="1024"
    panose-1="2 0 6 3 0 0 0 0 0 0"
    ascent="896"
    descent="-128"
    x-height="792"
    bbox="-512 -212 2900 896"
    underline-thickness="50"
    underline-position="-100"
    unicode-range="U+0078-E62A"
  />
<missing-glyph horiz-adv-x="374" 
d="M34 0v682h272v-682h-272zM68 34h204v614h-204v-614z" />
    <glyph glyph-name=".notdef" horiz-adv-x="374" 
d="M34 0v682h272v-682h-272zM68 34h204v614h-204v-614z" />
    <glyph glyph-name=".null" horiz-adv-x="0" 
 />
    <glyph glyph-name="nonmarkingreturn" horiz-adv-x="341" 
 />
    <glyph glyph-name="x" unicode="x" horiz-adv-x="1001" 
d="M281 543q-27 -1 -53 -1h-83q-18 0 -36.5 -6t-32.5 -18.5t-23 -32t-9 -45.5v-76h912v41q0 16 -0.5 30t-0.5 18q0 13 -5 29t-17 29.5t-31.5 22.5t-49.5 9h-133v-97h-438v97zM955 310v-52q0 -23 0.5 -52t0.5 -58t-10.5 -47.5t-26 -30t-33 -16t-31.5 -4.5q-14 -1 -29.5 -0.5
t-29.5 0.5h-32l-45 128h-439l-44 -128h-29h-34q-20 0 -45 1q-25 0 -41 9.5t-25.5 23t-13.5 29.5t-4 30v167h911zM163 247q-12 0 -21 -8.5t-9 -21.5t9 -21.5t21 -8.5q13 0 22 8.5t9 21.5t-9 21.5t-22 8.5zM316 123q-8 -26 -14 -48q-5 -19 -10.5 -37t-7.5 -25t-3 -15t1 -14.5
t9.5 -10.5t21.5 -4h37h67h81h80h64h36q23 0 34 12t2 38q-5 13 -9.5 30.5t-9.5 34.5q-5 19 -11 39h-368zM336 498v228q0 11 2.5 23t10 21.5t20.5 15.5t34 6h188q31 0 51.5 -14.5t20.5 -52.5v-227h-327z" />
    <glyph glyph-name="uniE600" unicode="&#xe600;" 
d="M909 224q-73 -158 -186 -255q-91 -79 -227 -81q-164 -3 -284 148q-35 45 -57.5 108.5t-30 122.5t-9.5 112t1 85l3 32l52 -75q18 63 52 123t68.5 100.5t68 72t53.5 46.5t21 15l-24 102q52 -24 106 -64.5t94 -81.5t72.5 -79t50.5 -61l17 -24l19 62q43 -108 56 -154
q21 -72 26 -145q1 -26 0 -53.5t-3 -50.5l-2 -22zM344 525l-18 -20q-10 -12 -28 -44t-19 -58q26 52 49 71l29 -36q-1 0 -3.5 14.5t-6 36t-3.5 36.5zM331.5 339q-47.5 -8 -73.5 -59.5t-14.5 -116t53.5 -104.5t90 -32t73.5 59t14 116t-53.5 105t-89.5 32zM484 633
q-6 -57 -22 -85q22 19 36 41q41 -33 43 -39l-1 3q-1 3 -3.5 8t-5.5 11.5t-8 14.5t-10.5 16t-13 16t-15.5 14zM504 465q-4 -3 -9 -11t-13.5 -42.5t-7.5 -82.5q13 66 29 81q27 -26 38 -30l-7 15q-7 15 -16.5 36.5t-13.5 33.5zM668 339q-48 8 -90 -32t-53.5 -105t14.5 -116
t74 -59t90 32t53.5 104.5t-14.5 116t-74 59.5zM610.5 47q-41.5 7 -65 45.5t-15 86.5t44 77t77 22.5t65 -45.5t15 -87t-44 -77t-77 -22zM611.5 170q-11.5 0 -20 -8t-8.5 -19.5t8.5 -19.5t20 -8t20 8t8.5 19.5t-8.5 19.5t-20 8zM389 45q-41 -7 -76.5 22t-44 77t15 87t65 46
t76.5 -22t43.5 -77t-15 -87t-64.5 -46zM388 170q-12 0 -20 -8t-8 -19.5t8 -19.5t20 -8t20.5 8t8.5 19.5t-8.5 19.5t-20.5 8z" />
    <glyph glyph-name="uniE601" unicode="&#xe601;" 
d="M762 112q-28 26 -76 47q-49 21 -107 33l-12 2l-60 -89l-60 89l-12 -2q-53 -9 -107 -32q-48 -20 -77 -46q-38 -35 -38 -78q0 -28 8 -53l4 -13h562l5 12q9 25 9 54q0 42 -39 76zM760 8h-506q-3 13 -3 28q0 26 26 50q23 21 65 39q40 17 87 27l78 -116l77 116q47 -11 87 -29
q92 -39 92 -87q0 -15 -3 -28zM342 337h28q6 -58 45 -97t92 -39q48 0 86 34h-86q-43 0 -73 35t-30 85t30 85t73 35q38 0 67 -29.5t35 -73.5h34q-5 58 -44.5 98t-92 40t-91.5 -40t-45 -98h-35q-8 69 45.5 120t126.5 51q62 0 109.5 -40t58.5 -97q2 -12 3 -25q-3 -39 -36 -58.5
t-84 -19.5q-27 0 -51 9v-38q25 -5 51 -5q54 0 94 18.5t52 49.5h1q8 25 8 52q0 78 -60.5 133.5t-146 55.5t-145.5 -55.5t-60 -133.5q0 -33 3 -52h38zM342 337zM843 749h-660q-75 0 -127.5 -53t-52.5 -127v-601q0 -74 52.5 -127t127.5 -53h660q75 0 127.5 53t52.5 127v601
q0 74 -52.5 127t-127.5 53zM963 -22q0 -54 -36 -91.5t-89 -37.5h-647q-53 0 -90.5 37.5t-37.5 91.5v582q0 53 37.5 91t90.5 38h647q53 0 89 -37.5t36 -91.5v-582zM783 148z" />
    <glyph glyph-name="uniE602" unicode="&#xe602;" horiz-adv-x="1332" 
d="M1300 729q-13 0 -22 -9t-9 -22v-54q-69 115 -188.5 183.5t-261.5 68.5q-185 0 -327 -113.5t-182 -286.5q-3 -6 -3 -13q0 -12 9.5 -21t22.5 -9t22 9t9 21q35 153 160.5 253t289 100t289 -100t160.5 -253q0 -12 9 -21t22 -9t22 9t9 21v215q0 13 -9 22t-22 9zM1300 315
q-13 0 -22 -9t-9 -21q-35 -153 -160.5 -253t-289 -100t-289 100t-160.5 253q0 12 -9 21t-22 9t-22.5 -9t-9.5 -21v-215q0 -13 9.5 -22t22.5 -9t22 9t9 22v54q69 -115 188.5 -183.5t260.5 -68.5q186 0 328 113.5t182 286.5q2 6 2 13q0 12 -9 21t-22 9zM999 230v0h-139v85h139
v0q12 0 21 9t9 21.5t-9 21t-21 8.5v0h-119l130 240q8 10 8 22q0 17 -11.5 28t-27.5 11q-27 0 -37 -25q-112 -219 -118 -234h-1q-7 18 -123 234q-9 25 -36 25q-16 0 -27 -11t-11 -27q0 -12 6 -21v-1l129 -241h-121q-12 0 -21 -8.5t-9 -21t9 -21.5t21 -9h144v-85h-144
q-12 0 -21 -9t-9 -21.5t9 -21t21 -8.5v-1h144v-121v-8q0 -16 11 -27t26.5 -11t26.5 11t11 27v8h1v121h139v1q12 0 21 8.5t9 21t-9 21.5t-21 9z" />
    <glyph glyph-name="uniE603" unicode="&#xe603;" 
d="M512 -128q-104 0 -199 40.5t-163.5 109t-109 163.5t-40.5 199t40.5 199t109 163.5t163.5 109t199 40.5t199 -40.5t163.5 -109t109 -163.5t40.5 -199t-40.5 -199t-109 -163.5t-163.5 -109t-199 -40.5zM512 817q-118 0 -217.5 -58t-158 -157.5t-58.5 -217.5t58 -217.5
t158 -158t218 -58.5t217.5 58.5t157.5 158t58 217.5t-58 217.5t-157.5 157.5t-217.5 58zM539 431q-32 -32 -64.5 -72t-49.5 -64l-16 -23l-130 101l-29 -43l159 -232q64 125 144 232q41 54 91.5 112t80.5 88l30 31h-57l-10 -7q-9 -6 -25.5 -18.5t-36.5 -27.5t-43.5 -36
t-43.5 -41z" />
    <glyph glyph-name="uniE604" unicode="&#xe604;" 
d="M512 601q-90 0 -153.5 -63.5t-63.5 -153.5t63.5 -153.5t153.5 -63.5t153.5 63.5t63.5 153.5t-63.5 153.5t-153.5 63.5zM533 357q-18 -24 -36 -53t-27 -46l-9 -17l-80 116l15 21l64 -50q29 43 65 79q37 37 80 65h29h-1q-56 -57 -100 -115zM512 896q-139 0 -257 -68.5
t-186.5 -186.5t-68.5 -257t68.5 -257t186.5 -186.5t257 -68.5t257 68.5t186.5 186.5t68.5 257t-68.5 257t-186.5 186.5t-257 68.5zM512 128q-106 0 -181 75t-75 181t75 181t181 75t181 -75t75 -181t-75 -181t-181 -75z" />
    <glyph glyph-name="uniE605" unicode="&#xe605;" 
d="M548 582q21 7 47 32q27 27 40 59q13 33 13 59v8q-1 3 -3 11q-75 -18 -108 -65t-34 -111q15 1 26.5 3t18.5 4zM742 272q-30 43 -30 96q0 49 29 90q15 22 49 51q-23 29 -45 43q-41 28 -92 28q-16 0 -31.5 -6t-36.5 -17q-20 -12 -40 -16.5t-29 -4.5q-8 0 -22.5 5t-37.5 17
q-21 11 -41 15t-36 4q-73 0 -123 -63q-48 -63 -48 -162q0 -107 63 -217q64 -112 130 -112q23 0 58 14q33 15 61 15t65 -14q41 -14 61 -14q55 0 111 85q37 56 54 108q-39 12 -69 55zM509.5 896q-103.5 0 -198 -40.5t-162.5 -108.5t-108.5 -162.5t-40.5 -198t40.5 -197.5
t108.5 -162.5t162.5 -109t198 -40.5t197.5 40.5t162.5 109t109 162.5t40.5 197.5t-40.5 198t-109 162.5t-162.5 108.5t-197.5 40.5zM509.5 -78q-94.5 0 -180.5 37t-148.5 99t-99.5 148t-37 180.5t37 180.5t99.5 148.5t148.5 99.5t180.5 37t180.5 -37t148 -99.5t99 -148.5
t37 -180.5t-37 -180.5t-99 -148t-148 -99t-180.5 -37z" />
    <glyph glyph-name="uniE606" unicode="&#xe606;" 
d="M502 858h13q198 -9 330 -141t141 -330v-13q-9 -197 -141 -329q-133 -133 -333 -138h-10q-195 9 -332 141q-131 136 -135 330v6q3 0 0 3q4 193 141 330q132 132 326 141zM394 691q3 -12 15.5 -28t16.5 -23q-40 -21 -62.5 -51t-24.5 -77h349q-2 48 -24 76.5t-62 54.5
q2 5 10.5 15.5t13 19t4.5 16.5q-6 2 -11.5 -0.5t-7.5 -5t-5 -8.5l-4 -8q-10 -14 -20 -29q-30 14 -73.5 13.5t-73.5 -13.5q0 1 -4.5 10.5t-7.5 15.5t-8 13t-10.5 9.5t-10.5 -0.5zM240 368q0 -9 -0.5 -23.5t-0.5 -24.5v-22q0 -13 2.5 -21t7 -15.5t12 -11.5t18 -4t18 3.5
t12 10.5t6.5 14.5t2.5 19.5t0.5 21.5t-0.5 24.5t-0.5 25q0 7 0.5 25t0 26.5t-1.5 23t-4 21.5t-8.5 15t-14 10t-20.5 0t-19 -9t-9.5 -20.5t-2.5 -24t1 -32t1 -32.5zM336 483v-221q0 -6 -0.5 -18.5t-0.5 -20t1 -16.5t3 -15q14 -31 64 -26q0 -9 -0.5 -24t-1 -25.5t0 -24
t3 -22.5t7 -17t13 -11.5t20.5 -3.5q14 1 22.5 9.5t11 24t2.5 29.5t-1 34t0 31h64q0 -9 -1.5 -30t-1 -34t2.5 -28.5t10 -24.5t22 -11q13 -1 22 2.5t13.5 12t7.5 17.5t3.5 23t0 24.5t-1 25.5t-0.5 23q19 -2 32.5 1.5t20 10t10 22.5t4 27.5t0.5 34.5v224h-349h-3v-3zM707 365
q0 -8 -0.5 -23.5t-0.5 -24t1 -21t3.5 -19.5t6.5 -15t11.5 -11.5t17.5 -4.5q10 0 17.5 3.5t12 11t7 15t2.5 20.5v22q0 9 -0.5 23.5t-0.5 23.5q0 10 1.5 33t1.5 39.5t-3 26.5q-4 13 -18 19t-27 3q-13 -2 -20.5 -9t-10 -21t-3 -24t0.5 -33t1 -34zM432 598q12 3 18 -5t2.5 -18
t-14.5 -12q-13 0 -17.5 15.5t11.5 19.5zM579 598q20 5 21 -14q-1 -18 -14 -21q-13 0 -17 15.5t10 19.5z" />
    <glyph glyph-name="uniE607" unicode="&#xe607;" 
d="M784 12h-548v243h-101v-304q0 -17 12 -28.5t29 -11.5h669q17 0 29 11.5t12 28.5v304h-102v-243zM938 450l-70 172q0 -1 -3 6t-8.5 18t-13 21.5t-21 18.5t-30.5 8h-5h-553h-5q-9 0 -17.5 -2.5t-15 -7t-12 -10t-10 -11.5t-8 -12t-5.5 -11.5t-4 -9.5l-3 -6l-1 -2l-70 -172
q-7 -13 -11.5 -30t-6 -26.5t-1.5 -12.5q0 -42 33 -72.5t79 -30.5q39 0 69.5 23t38.5 58q0 1 1 2.5t2 3.5l1 -6l1 2q8 -35 38.5 -59t70.5 -24h4q40 0 70.5 24t38.5 59q7 -35 37.5 -59t71.5 -24h4q40 0 70.5 24t37.5 59q1 -1 1 -2l2 5q0 -1 1 -2.5t1 -2.5q9 -35 39 -58t70 -23
q46 0 78.5 30.5t32.5 72.5q0 3 -1.5 12.5t-6 26.5t-11.5 30z" />
    <glyph glyph-name="uniE608" unicode="&#xe608;" horiz-adv-x="1025" 
d="M943 469h-862q-33 0 -57 -24t-24 -58v-174q0 -34 24 -58t57 -24h862q33 0 57 24t24 58v174q0 34 -24 58t-57 24zM1020 216q0 -33 -23.5 -56t-57.5 -23h-853q-34 0 -57.5 23t-23.5 56v169q0 33 23.5 56t57.5 23h853q34 0 57.5 -23t23.5 -56v-169z" />
    <glyph glyph-name="uniE609" unicode="&#xe609;" 
d="M179 232h27l11 70h57q4 0 8 2.5t6 5.5l2 2q3 4 5 8.5t2 7.5l1 3l14 92h-76l6 37h-26l-6 -38h-23q-7 0 -14 -4t-11 -8l-4 -4l2 16h-26l-19 -120h76zM232 396h50l-10 -61q-1 -6 -5 -6h-46zM145 329l11 67h50l-11 -67h-50zM468 232q4 0 7.5 2t5.5 4l2 2q3 4 5 9t3 8v3
l33 200h-127q-6 0 -13.5 -4.5t-11.5 -8.5l-4 -4l3 17h-27l-36 -228h160zM366 434h127l-27 -169q-1 -7 -6 -7h-122zM359 304l-4 -26h99l4 26h-5v19h-19l1 -19h-13l5 29h36l4 26h-36l4 28h37l4 27h-99l-4 -27h36l-4 -28h-37l-4 -26h36l-4 -29h-37zM579 416h44l4 27h-34l6 17
h-28q-3 -15 -8 -23.5t-8 -10.5l-3 -1h-8l-4 -27h12q7 0 13.5 4.5t10.5 9.5zM540 255q-3 -13 4 -20q3 -3 9 -3h40l4 26h-25h-2q-1 0 -2 2.5t0 5.5l5 36h31l5 27h-31l6 36h31l4 27h-76l-4 -27h19l-6 -36h-19l-4 -27h18zM608 238q2 -3 5 -4.5t5 -1.5h3h30l4 26h-17q-2 0 -3 2
t-1 4v2l12 73h54q4 0 7 1.5t4 3.5l2 1q4 4 6.5 10t3.5 10l1 4l15 91h-47q-6 0 -13.5 -4t-11.5 -9l-4 -4l2 17h-26l-33 -204q-1 -6 -0.5 -10t1.5 -6zM661 434h47l-3 -21h-22q-6 -1 -13 -5t-11 -8l-4 -4zM653 386h48l-4 -20h-47zM700 329l-2 -15l-4 -4h-10v19h-26l1 -77l1 -12
q2 -4 5.5 -6t6.5 -2h4h29l4 26h-19l-5 5v27h12q4 0 8 1.5t5 2.5l1 1q2 2 3.5 5.5t2.5 5.5v3l3 20h-20zM733 243h60l-2 -11h26l2 11h8l4 26h-8l27 165h8l4 26h-33q-7 0 -14 -4.5t-11 -8.5l-4 -4l3 17h-26l-31 -191h-9zM799 434h25l-6 -38q-12 0 -28 -16zM788 370h26l-6 -37
q-12 -1 -28 -17zM778 307h25l-6 -38h-25zM850 370h33l-4 -25h-33l-4 -26h30l-22 -53q-2 -4 -4 -6t-3 -2h-1h-10l-4 -26h19q5 0 8.5 1.5t5.5 3.5l2 2l8 16l13 31l4 -31l4 -15q1 -3 4.5 -5.5t6.5 -2.5h3h14l4 26h-7q-1 0 -2 2.5t-2 5.5v2l-5 38h-15l5 13h36l4 26h-33l4 25h33
l4 26h-91zM943 425q9 13 13 35h-28q-2 -9 -5 -15q-4 -8 -13 -8l-5 -27h16h1q1 0 2 0.5t2.5 1t3.5 1.5t4 2.5t4.5 4t4.5 5.5zM884 410h16l4 27q-4 0 -7 2t-3 4l-1 2v15h-28q-1 -11 -0.5 -19t1.5 -12l1 -4q2 -7 6.5 -10.5t7.5 -4.5h3zM127 87q-10 0 -16.5 12.5t-3.5 31.5
t13.5 31.5t20.5 12.5q12 0 22 -7l8 18q-9 9 -28 9t-35 -18t-20.5 -46t5.5 -46t29 -18t32 9l-3 17q-12 -6 -24 -6zM212 152q-9 0 -21 -10l9 58l-17 -3l-20 -128h16l10 59q8 6 12 6q9 0 7 -12l-8 -53h16l10 58q4 25 -14 25zM244.5 180q-0.5 -5 1 -9t5 -4t7 4t4 9t-1.5 8.5
t-5 3.5t-6.5 -3.5t-4 -8.5zM240 150l-13 -81h17l13 81h-17zM305 152q-9 0 -21 -10v8h-15l-13 -81h16l10 59q8 6 12 6q9 0 7 -12l-9 -53h17l10 58q4 25 -14 25zM360 152q-13 0 -26 -8l1 -12q10 5 17 5q11 0 9 -14l-1 -4h-12q-11 -1 -18.5 -9t-9.5 -19q-1 -10 3 -16.5t12 -6.5
t18 9q-1 -4 0 -8h17q-1 6 1 13l7 45q2 12 -3 18.5t-15 6.5zM355 90q-8 -6 -12 -6q-9 0 -7 9q2 11 14 13l8 1zM477 192l-13 -77q-1 -12 -7.5 -20.5t-15.5 -8.5q-19 0 -14 29l13 77h-19l-13 -80q-3 -20 4.5 -32.5t24.5 -12.5t28.5 12.5t14.5 32.5l13 80h-16zM535 152
q-9 0 -21 -10l1 8h-16l-13 -81h16l10 59q8 6 12 6q9 0 7 -12l-8 -53h16l10 58q4 25 -14 25zM568.5 180q-0.5 -5 1.5 -9t5 -4t6.5 4t4 9t-1.5 8.5t-5 3.5t-6.5 -3.5t-4 -8.5zM551 69h17l13 81h-17zM621.5 152q-13.5 0 -24.5 -11.5t-14 -30.5t4.5 -30.5t20.5 -11.5t24.5 11.5
t14.5 30.5t-4.5 30.5t-21 11.5zM629 110q-2 -11 -7 -18.5t-11 -7.5q-15 0 -10.5 26t18.5 26q6 0 9 -7.5t1 -18.5zM699 152q-10 0 -22 -10l1 8h-16l-13 -81h17l9 59q8 6 13 6q9 0 7 -12l-9 -53h17l9 58q4 25 -13 25zM832 82l7 45q2 12 -3 18.5t-15 6.5q-12 0 -26 -8l2 -12
q9 5 16 5q11 0 9 -14l-1 -4h-12q-10 -1 -17.5 -9t-9.5 -19q-2 -10 2 -16.5t12.5 -6.5t17.5 9v-8h18q-1 6 0 13zM817 90q-9 -6 -12 -6q-9 0 -8 9q2 11 14 13l8 1zM869 96l-5 54h-18l11 -82l-4 -9q-1 -1 -2 -3q-7 -14 -12 -14q-4 0 -10 3l-6 -14q7 -6 16 -6q12 0 23 24l44 101
h-14zM794 157q2 15 -5 25t-22 10h-28l-19 -123h18l8 51h9q14 0 25 10.5t14 26.5zM775 157q-3 -19 -19 -19h-7l6 37h6q7 0 11 -4.5t3 -13.5z" />
    <glyph glyph-name="uniE60A" unicode="&#xe60a;" horiz-adv-x="2900" 
d="M250 256q-24 -3 -53.5 -12.5t-47.5 -24.5q-23 -21 -32 -47t-2 -51.5t25.5 -47.5t54.5 -35t82 -13q69 0 136 40.5t123 113.5q-91 44 -156 63.5t-130 13.5zM845 169q66 -22 111.5 -35t57.5 -15l13 -2v531q0 68 -48 116t-117 48h-698q-68 0 -116 -48t-48 -116v-696
q0 -68 48 -116t116 -48h698q69 0 117 48t48 116v7q-267 111 -402 175q-69 -84 -154 -131t-174 -47q-74 0 -127.5 30t-75.5 74t-16.5 96.5t41.5 96.5q38 45 113 63q107 27 357 -56q36 67 58 141h-402v41h207v72h-251v41h251v104q0 2 0.5 5t5 7.5t12.5 4.5h101v-121h248v-41
h-248v-72h203q-29 -117 -86 -216q21 -8 56 -20.5t59 -21.5t42 -15zM2489 651h294v-58h105v58v11v1q0 11 -8 19.5t-20 8.5h-170v54h-109v-54h-197v-20v-20v-58h105v58zM1853 740l-108 -254h83v-303h90v401h-33l68 156h-100zM2900 197l-33 111q-4 12 -17 12h-87l25 -85h-103
v165h202v40h-202v78h202v39h-202h-100h-201v-39h201v-78h-201v-40h201v-165h-201v-40h516l-1 2h1zM2084 531q-6 12 -19 12h-78l61 -191h92zM2281 736h-93v-99h-232v-39h232v-352q-2 -15 -16 -15h-47v-41h121q15 0 25 11t10 25v5v367h39v39h-39v99zM1696 557h-180v65h209v40
h-209v82h-94q-7 0 -12.5 -6t-5.5 -14v-62h-208v-40h208v-65h-175v-40h349l-3 -9q-2 -6 -10.5 -23t-20 -34.5t-33.5 -42.5t-48 -48q-38 29 -67 58t-38 44l-10 15h-93q51 -90 149 -160q-89 -58 -211 -95v-48q15 3 41.5 9.5t98 33.5t131.5 61q59 -34 125.5 -60t104.5 -35l37 -9
v46q-117 42 -207 98q136 101 172 239zM1400 -86l16 -47h43l-86 233h-33l-86 -233h44l16 47h86zM1358 40l32 -97h-66zM1597 100v-233h142v31h-100v202h-42zM1893 100h42v-233h-42v233zM2196 100h-91v-233h42v89h49q34 0 55.5 20.5t21.5 52t-21.5 51.5t-55.5 20zM2194 -12h-47
v80h47q16 0 26.5 -12t10.5 -27.5t-10 -28t-27 -12.5zM2520 -86l15 -47h44l-86 233h-33l-86 -233h44l16 47h86zM2477 40l33 -97h-66zM2813 100l-46 -99l-46 99h-46l71 -137v-96h42v96l70 137h-45z" />
    <glyph glyph-name="uniE60B" unicode="&#xe60b;" 
d="M1024 684q0 53 -37.5 90.5t-90.5 37.5h-768q-53 0 -90.5 -37.5t-37.5 -90.5v-768q0 -53 37.5 -90.5t90.5 -37.5h768q53 0 90.5 37.5t37.5 90.5v768zM512 -39q-116 0 -199 84t-83 204q0 69 29.5 126.5t79.5 97.5q19 19 26 32q-5 1 -12 4t-26.5 13.5t-35 23.5t-30 36.5
t-18.5 50.5q1 0 20.5 -6.5t37 -11t54 -8t74.5 -2.5t94 9.5t117 24.5q1 0 10 0.5t15 0.5t17 -1.5t19 -4.5t17 -9.5t14 -15t8.5 -22.5t1.5 -31q-1 0 -55 -8.5t-92 -23.5q-73 -30 -130 -69t-100 -104q-32 -53 -32 -102q0 -76 53.5 -131t125.5 -55q76 0 127.5 54t51.5 132
q0 66 -41 117.5t-100 61.5q3 0 4.5 1.5t2.5 3.5v1q53 16 92.5 6.5t66 -29t42.5 -45.5t22.5 -41.5t6.5 -18.5q7 -19 7 -57q0 -76 -38 -142.5t-103.5 -106t-140.5 -39.5zM595 249l-83 -90l-83 90l83 89z" />
    <glyph glyph-name="uniE60C" unicode="&#xe60c;" horiz-adv-x="2585" 
d="M709 283q-3 -2 -6 -2q-9 0 -14 8l-1 2l-41 91q-1 2 -1 4q0 7 7 7q3 0 5 -1l49 -35q6 -4 13 -4q4 0 8 1l231 103q-32 38 -81 59.5t-106 21.5q-95 0 -162 -56t-67 -135q0 -42 21 -79.5t58 -64.5q6 -4 6 -12v-5q-10 -38 -11 -38q-1 -5 -1 -6q0 -8 8 -8q2 0 4 2l50 29
q6 3 12 3q4 0 7 -1q36 -10 75 -10q95 0 162 55.5t67 134.5q0 47 -26 89l-264 -152zM1429 374h129v-10h-129v10zM1429 338h129v-12h-129v12zM1433 226h121v69h-121v-69zM1543 236h-99v48h99v-48zM1401 441q-17 -60 -49 -106l7 -12q11 17 22 38v-136h12v160q11 24 19 50z
M1494 411l10 6l-6 12q-5 10 -6 13l-11 -6l11 -22v-3h-75v-11h154v11h-77zM1205 438h10v-58h23v41h11v-52h-79v52h11v-41h24v58zM1174 346h69v-11h-69v11zM1253 283l-18 -15v44h-58v-18q2 -36 -18 -51l6 -11q25 21 23 58v11h36v-26q0 -12 -4 -17l7 -11q10 7 32 27zM1154 440
q-17 -34 -41 -56l7 -12q27 27 44 62zM1152 381q-16 -40 -42 -70l6 -11q11 13 21 26v-101h11v119q7 14 15 31zM1334 387v11h-52q10 29 12 43h-12q-11 -53 -33 -90l6 -12q2 4 6 11q3 6 5 9q5 -47 19 -75q-13 -23 -39 -46l6 -11q28 26 38 45q12 -22 36 -46l7 11q-25 24 -36 46
q20 36 24 104h13zM1291 296q-11 30 -17 81q2 5 5 10h31q-3 -57 -19 -91zM1952 281q-14 27 -37 63l9 4q25 -36 38 -60zM1806 227l3 10q-56 8 -96 32q47 30 67 77l-8 5h-2h-62v43h94v11h-94v41h-12v-41h-93v-11h93v-43h-64v-12q20 -42 60 -70q-39 -22 -95 -32l3 -11v-1
q61 12 103 37q42 -27 102 -36h1v1zM1646 339h117q-19 -38 -60 -64q-38 26 -57 64zM1890 444q-22 -60 -61 -100l4 -13h1q14 14 29 36v-142h11v160q16 27 27 55zM2009 391v52h-12v-52h-100v-12h100v-136q0 -7 -7 -7q-1 0 -4 -0.5t-8 -0.5h-10v-11q22 0 30 2q11 3 11 18v135h32
v12h-32z" />
    <glyph glyph-name="uniE60D" unicode="&#xe60d;" horiz-adv-x="1846" 
d="M804 401l-7 -72q-2 -25 5.5 -46.5t20 -33.5t23.5 -18.5t20 -8.5l-4 -35q-24 0 -48.5 5.5t-52 17.5t-49 38t-29.5 61q-4 18 -4 41t1 37l2 14h122zM1244 636h-305q-23 0 -28 18t7 36l42 95h125q-22 -57 -27 -68q-5 -7 -3.5 -14.5t17.5 -7.5h177zM1235 537l5 59h-332l-5 -59
h73l-5 -52h-73h-87l14 159q2 22 -16.5 36.5t-47.5 14.5h-141l6 76q1 6 -2.5 10t-9.5 4h-110l-8 -90h-155l-5 -59h155l-14 -151h-154l-5 -59h147q-23 -64 -73.5 -123t-91.5 -81l-3 -35q22 0 62 19.5t83.5 50t84 76.5t59.5 93h307h73l-16 -186q-3 -28 14 -40.5t49 -12.5
q51 0 106 18t90 36l3 33q-68 -16 -103 -19q-16 -1 -23.5 5.5t-5.5 21.5l12 144h133l5 59h-132l4 52h133zM700 611l-11 -126h-88l14 151h53q15 0 24 -7.5t8 -17.5zM1643 788q0 27 18.5 45.5t45 18.5t45 -18.5t18.5 -45t-18.5 -45t-45 -18.5t-45 18.5t-18.5 44.5zM10 566
l-8 -80q-3 -28 11 -44t41 -16h114l-21 -239h112l51 584q0 6 -3.5 10t-9.5 4h-98l-26 -300h-45q-8 0 -12.5 3.5t-5.5 7.5l-1 4l7 63zM1844 167q0 -20 -10.5 -46.5t-33 -56t-53 -54t-76 -40.5t-95.5 -16q-51 0 -92 22t-61 61t-22 86t24.5 102t79.5 104q52 48 109.5 64.5
t101 3.5t68.5 -46q15 -21 15.5 -40t-12 -32.5t-35 -23.5t-53 -13t-66.5 1q-83 10 -130.5 81t-50.5 177v16q0 12 1 20h232l5 59h-234q3 19 6 40h231l5 59h-223q3 13 6.5 25t6 20.5t4.5 15t4 9.5l1 3q0 6 -3.5 10t-9.5 4h-106q-10 -34 -20 -87h-73l-5 -59h68q-2 -19 -4 -40
h-68l-5 -59h69v-15q0 -11 3.5 -40t10 -56.5t22 -62t37.5 -60.5q45 -58 100.5 -86.5t129.5 -28.5q66 0 116.5 26.5t65.5 68.5q13 36 -7.5 75.5t-56.5 63.5q-44 30 -102 35.5t-116 -14.5t-110 -57t-89 -95t-48 -126q-11 -65 6 -120.5t52 -89.5t79.5 -53t91.5 -19
q63 0 123 24.5t102.5 64t68 91t25.5 104.5zM10 566q4 61 15 125q34 205 276 205h250h-12h36l-1 -10q-2 -15 -25 -15h-13h-2h-214q-165 0 -191 -193l-13 -115zM218 -1q-21 -13 -36 -13q-47 2 -46 47q8 50 64 54q58 -2 55 -66q-15 -90 -101 -96q-16 0 -14 4q-1 3 2 5t10 2
q53 7 66 63zM190 0q28 0 32 35q2 39 -23 40q-25 -1 -29 -40q-2 -34 20 -35zM355 -1q-22 -13 -36 -13q-48 2 -46 47q8 50 63 54q59 -2 56 -66q-16 -90 -102 -96q-16 0 -14 4q0 3 3 5t10 2q52 7 66 63zM327 0q28 0 32 35q1 39 -23 40q-25 -1 -29 -40q-3 -34 20 -35zM411 -51
l9 114q1 1 1.5 7t0.5 8q-1 6 10 6h64q47 -1 46 -34q-4 -31 -41 -39v-1q43 -3 43 -38q-5 -43 -62 -45h-63q-6 0 -8.5 1.5t-1.5 5.5q0 1 0.5 7t1.5 8zM447 -3l-4 -39q-4 -18 19 -17q44 0 48 30q0 26 -28 33zM452 54l-4 -43q57 9 59 39q1 19 -31 19q-27 2 -24 -15zM580 -73h-12
q-4 0 -6 1.5t-1 4.5l1 15l5 56q1 5 -7 8q-4 3 -3 6q-1 4 6 5l3 1q19 8 24 8q8 1 6 -17l-6 -67q-1 -13 -2 -15q0 -6 -8 -6zM585 72q16 -1 15 -15q-2 -15 -19 -15t-16 15q2 14 20 15zM695 -73h-12q-9 0 -8 6l2 16l10 114q1 6 -6 8q-5 3 -4 8q6 7 33 11q7 1 6 -14l-11 -127
q-1 -14 -1 -16q-1 -6 -9 -6zM637 -73h-12q-4 0 -6 1.5t-1 4.5l1 16l10 114q1 6 -6 8q-5 3 -4 8q6 7 33 11q7 1 6 -14l-11 -127q-1 -14 -1 -16q-1 -6 -9 -6zM752 -74q-17 1 -17 14q2 13 19 15q15 -2 15 -15q-2 -13 -17 -14zM794 -24q8 52 62 56q34 -3 37 -23q-2 -10 -14 -10
q-6 -1 -11 9q-6 12 -14 12q-26 -2 -30 -44q-1 -33 27 -36q12 0 26 11q6 6 9 6q5 -1 4 -6q-11 -23 -46 -25q-51 2 -50 50zM1019 -22q-9 -49 -63 -52q-55 3 -54 52q8 50 63 54q54 -4 54 -54zM931 -22q-2 -39 26 -40q27 2 32 40q2 39 -25 41q-28 -2 -33 -41zM1190 -73h-13
q-8 0 -7 6q0 1 0.5 7t0.5 9l4 48q1 18 -15 19q-20 -2 -24 -19l-4 -48q-1 -3 -1 -9v-7q-1 -6 -8 -6h-13q-9 0 -8 6q0 1 1 7t1 9l4 48q1 18 -15 19q-20 -2 -24 -19l-4 -48q-1 -9 -2 -16q0 -6 -9 -6h-11q-9 0 -8 6l1 6q1 6 1 10l4 52q1 9 -5 11q-4 2 -4 7q2 9 29 13q8 1 6 -18
h1q12 17 36 18q21 -1 28 -18q14 18 38 18q34 -2 33 -35l-4 -48q-1 -3 -1 -9v-7q-1 -6 -8 -6z" />
    <glyph glyph-name="uniE60E" unicode="&#xe60e;" 
d="M776 482v52h-193v-52h82v-49q0 -12 -4.5 -16.5t-14.5 -4.5v-15q25 1 36.5 11t11.5 30v44h82v0zM748 498h-137v20h137v-20v0zM748 498zM694 573h-29v-12h-89v-16h207v16h-89v12zM694 573zM576 397h16q16 14 27 32.5t14 30.5l4 11h-32q-5 -39 -29 -74v0zM576 397zM722 471
q10 -43 45 -74h16q-24 35 -29 74h-32v0zM722 471zM813 397h17q15 14 26.5 32.5t14.5 30.5l3 11h-32q-5 -40 -29 -74v0zM813 397zM960 471q9 -43 44 -74h16q-24 35 -29 74h-31v0zM960 471zM886 561l6 12h-29l-6 -12h-44v-16h37l-30 -63h84v-49q0 -12 -4.5 -16.5t-14.5 -4.5
v-15q25 1 36.5 11t11.5 30v44h80v16h-80v35h-29v-35h-47l22 47h141v16h-134v0zM886 561zM455 528q-55 49 -160 49h-81v-385h81q105 0 160 48q56 49 56 144q0 96 -56 144zM413 281q-37 -34 -111 -34h-28v273h28q74 0 111 -33q37 -34 37 -103.5t-37 -102.5v0zM413 281z
M108 344q0 -38 -5 -53q-5 -14 -17 -23q-13 -11 -33 -16q-19 -4 -47 -5h-6v-55h6h3q82 0 121 33q40 35 40 103v248h-62v-232v0zM108 344zM778.5 348q-31.5 0 -54.5 -22.5t-23 -54t23 -54.5t54.5 -23t54 23t22.5 54.5t-22.5 54t-54 22.5zM778 218q-22 0 -38 15.5t-16 38t16 38
t38.5 15.5t38 -15.5t15.5 -38t-15.5 -38t-38.5 -15.5v0zM778 218zM528 251q-6 0 -10.5 -4t-4.5 -10t4.5 -10.5t10.5 -4.5t10.5 4.5t4.5 10.5t-4.5 10t-10.5 4v0zM528 251zM1000 344l-52 -97l-52 97h-24v-145h23v98l53 -96l53 96v-98h23v145h-24zM1000 344zM684 231
q-16 -13 -36 -13q-22 0 -38 15.5t-16 38t16 38t38 15.5q20 0 36 -13l2 -2l16 16l-2 2q-22 20 -52 20q-32 0 -54.5 -22.5t-22.5 -54t22.5 -54t54.5 -22.5q30 0 52 20l2 1l-16 17l-2 -2v0zM684 231z" />
    <glyph glyph-name="uniE60F" unicode="&#xe60f;" horiz-adv-x="1040" 
d="M404 404q18 32 21 78q-6 -28 -19 -45q8 23 8 40q-4 -17 -11 -25q2 4 2.5 21t0 32.5t-0.5 16.5q-3 -81 -38 -129q-43 -62 -110 -79.5t-118 18.5q-16 11 -28.5 30t-16.5 41l62 55l44 -51l-37 -33h1h2q35 -1 70.5 17.5t59.5 52.5q30 48 19.5 80.5t-45.5 48.5t-74 9
q-32 -6 -61 -19q-81 -38 -116.5 -112t-4.5 -141.5t110.5 -88.5t160.5 17q40 18 65.5 40t56.5 76q-28 -38 -42 -42q3 2 9.5 10.5t21 38t28.5 70.5q-12 -22 -20 -27zM930 369v42h92v18h-92v31h92v22h-219v-22h89v-31h-89v-18h89v-42h-91v-23h223v23h-94zM1018 523q-6 7 -14 10
q-6 2 -18 2h-59l-4 15h-40l4 -15h-51h-1h-34v-42h35v19h137q7 0 10 -2q5 -4 5 -9v-8h36v14q0 8 -6 16zM966 389q0 -7 5 -12t12.5 -5t12.5 5t5 12t-5 12t-12.5 5t-12.5 -5t-5 -12zM731.5 438.5q-8.5 8.5 -22.5 8.5h-147l6 14h121q17 0 29.5 11t12.5 31v17v30h-38h-127
q-26 0 -35 -5.5t-9 -27.5v-56h11q-3 -8 -29 -58l32 1l15 22h25l-49 -80h38l49 80h24l-49 -80h38l49 80h15q7 0 11 -4t4 -10v-30q0 -7 -9 -10.5t-18 -3.5h-9l-13 -22h52q14 0 22 7q9 10 9 24v40q0 13 -8.5 21.5zM556 495h107h1v0q9 0 10 9v13h-10v0h-1h-107v4q0 3 3 5
q1 2 4 2h141q-2 -2 0.5 -12t-6 -21.5t-26.5 -11.5h-116v12zM530 302h36v-6h-29v-17h26v-6h-26v-19h29v-5h-36v53zM621 266h-21l-7 -17h-7l20 53h10l19 -53h-8zM611 297l-9 -25h17zM657 250v4q7 -1 17 -1q12 0 12 9q0 6 -8 10q-2 1 -5 2t-5 1q-12 5 -12 15q1 12 19 13
q9 0 16 -2v-5q-8 2 -16 2q-12 -1 -12 -8q-1 -6 8 -9q1 0 3 -1q5 -2 7 -3q13 -5 13 -15q0 -14 -20 -14q-9 0 -17 2zM741 249h-7v21l-20 32h7l16 -27l16 27h8l-20 -32v-21zM838 270h-5v-21h-7v53h12q28 1 27 -16q1 -17 -27 -16zM840 297h-6v-22h6q19 0 18 11q1 11 -18 11z
M919 266h-21l-7 -17h-7l19 53h10l20 -53h-8zM908 297l-8 -25h17zM978 249h-7v21l-20 32h7l16 -27l16 27h8l-20 -32v-21z" />
    <glyph glyph-name="uniE610" unicode="&#xe610;" 
d="M119 420q-17 0 -29 -23q-1 -3 -5 -29t-7 -50l-3 -24l31 -1l17 103l59 -1l-19 -102h34l21 128q0 -1 -99 -1zM148 292q-1 3 2 25t6 42l4 19h-28q-3 -46 -13 -78q-5 -14 -19 -22.5t-24 -9.5l-11 -1l1 -22q12 -1 28 5.5t25 13.5l10 8q12 -14 26 -20t21 -6h8l2 23
q-15 2 -25 9.5t-13 13.5zM332 401v16h-33v-16h-67l-10 -20q60 0 67 -1q16 -2 11 -39q-2 -16 -14.5 -38.5t-23.5 -36.5l-12 -15h49q7 4 14 37t11 64l3 31h18v18h-13zM253 371q-25 -68 -33 -78q-11 -15 -16 -19q-3 -2 -4 -7.5t-1 -10.5v-5v-1q4 -1 20 3q12 3 28 32.5t26 56
t10 28.5h-30v1zM436 468q-28 -38 -32 -43q-3 -3 -7 -5t-7 -3l-3 -1l-4 -25h22q-1 -2 -8 -37.5t-13 -70.5l-7 -35h43l27 173l32 47h-43zM659 444l4 23h-43l-3 -24h-134q-1 -5 -5 -12t-7 -11l-3 -5h143l-11 -47q11 -28 7.5 -49.5t-17.5 -38t-28.5 -27t-26.5 -15.5l-12 -6
q40 0 67 17t36 40q6 13 11.5 45t8.5 58l3 25l14 2l5 25h-9zM945 390q7 1 10.5 7t3.5 13v6h-177l-10 -19h131q0 -3 -2 -7t-4 -6l-2 -3h-40v5h-46l-4 -8q-23 4 -31 -6q-4 -4 -9 -29t-8 -48l-2 -22l33 1l6 25h35l-3 -26h37l3 29h31q2 0 3.5 1.5t1.5 4.5l2 4v4l1 2l-34 1l1 12
q21 0 30 1q4 0 6 5t2 9v5h-32l1 9h38q8 -18 2.5 -37t-17.5 -35l-11 -15h42l23 103h-12q-2 5 -2 8t2 5zM830 318l-35 1q-2 10 3 12l36 -1q1 -12 -4 -12zM837 352h-34q-5 6 0 8h37q1 -1 1.5 -2.5t-0.5 -3.5t-4 -2zM758 260q-12 0 -18.5 4.5t-7.5 8.5l-1 4l23 115h-47l-3 -21
h12q-13 -84 -16 -98q-1 -7 -5.5 -9.5t-7.5 -1.5l-4 1v-19h26q2 0 5 2.5t5 4.5l3 3q4 -5 13 -8t15 -3l7 -1h180l4 18h-9q-9 0 -23 -0.5t-31 -0.5h-36h-36h-29q-13 0 -19 1zM572.5 377.5q-19.5 15.5 -46.5 11t-45 -26.5t-17.5 -49t19.5 -43t46 -11.5t46 26.5q18 22 17.5 49.5
t-20 43zM544 304h-46l7 46h43zM709 424h53q-1 8 -6 20.5t-37 40t-83 41t-157 7.5t-246 -44h3q242 47 373 13q84 -22 100 -78zM81 437v29h-11v4h27v-4h-12v-29h-4zM104 437v33h24v-4h-19v-10h18v-4h-18v-11h20v-4h-25zM138 437v33h5l17 -26v26h4v-33h-4l-17 26v-26h-5z
M175 437v33h12q4 0 5 -1q3 0 4 -1q2 -1 3 -4q1 -2 1 -4q0 -4 -3 -7q-2 -3 -9 -3h-8v-14h-5v1zM180 454h8q4 0 6 2t2 4q0 3 -1 4t-3 1l-2 1h-2h-8v-12zM202 437l13 33h5l13 -33h-5l-4 10h-14l-3 -10h-5zM212 450h11l-3 9q-1 2 -2 5v2q-2 -4 -2 -6zM246 437v14l-13 19h5l7 -10
q0 -1 1.5 -3t1.5 -3q1 1 2 3t1 3l7 9h5l-13 -18v-14h-4zM266 437v4h4v-4h-4zM305 448l4 -1q-1 -5 -5 -8q-3 -3 -8.5 -3t-8.5 2q-4 3 -5 6q-2 4 -2 9t3 9q1 4 5 6q5 2 8 2q5 0 8 -2q4 -3 5 -8l-5 -1q0 4 -2.5 5.5t-5.5 1.5q-4 0 -6.5 -1.5t-3.5 -5.5t-1 -6q0 -3 1 -7t4 -5
q2 -1 6 -1q3 0 6 2q2 3 3 6zM317 453q0 7 4 12t11 5q5 0 9 -2q4 -4 5 -6q2 -5 2 -9q0 -6 -2 -9q-1 -3 -6 -6q-4 -3 -8 -3t-8 3q-5 3 -6 6q-1 5 -1 9zM321 453q0 -7 3.5 -10t7.5 -3q6 0 8 3q3 3 3 10q0 3 -1 7q-1 3 -3.5 5t-5.5 2q-5 0 -8 -4q-4 -3 -4 -10zM357 437v33h7
l8 -24q1 -3 2 -5q0 2 1 5l8 23h6v-33h-4v28l-10 -28h-4l-9 28v-28h-5v1z" />
    <glyph glyph-name="uniE611" unicode="&#xe611;" 
d="M512 -212q-104 0 -199 40.5t-163.5 109t-109 163.5t-40.5 199t40.5 199t109 163.5t163.5 109t199 40.5t199 -40.5t163.5 -109t109 -163.5t40.5 -199t-40.5 -199t-109 -163.5t-163.5 -109t-199 -40.5zM512 779q-97 0 -186 -38t-153 -102t-102 -153t-38 -186t38 -186
t102 -153t153 -102t186 -38t186 38t153 102t102 153t38 186t-38 186t-102 153t-153 102t-186 38zM518 -1q-7 0 -11.5 5t-4.5 12v133q0 7 4.5 12t11.5 5t12 -5t5 -12v-133q0 -7 -5 -12t-12 -5zM679 -9h-322q-7 0 -11.5 5t-4.5 12t4.5 11.5t11.5 4.5h322q7 0 12 -4.5t5 -11.5
t-5 -12t-12 -5zM802 145h-568q-6 0 -11 5t-5 12v372q0 6 5 11t11 5h568q7 0 11.5 -5t4.5 -11v-372q0 -7 -4.5 -12t-11.5 -5zM251 178h535v339h-535v-339z" />
    <glyph glyph-name="uniE612" unicode="&#xe612;" 
d="M512 745q-184 0 -314.5 -130.5t-130.5 -314.5t130.5 -314.5t314.5 -130.5t314.5 130.5t130.5 314.5t-130.5 314.5t-314.5 130.5zM512 -115q-113 0 -208.5 55.5t-151 151t-55.5 208.5t55.5 208.5t151 151t208.5 55.5t208.5 -55.5t151 -151t55.5 -208.5t-55.5 -208.5
t-151 -151t-208.5 -55.5zM634 379l4 50h-252l13 -152h175l-6 -65l-57 -15l-55 15l-4 40h-50l6 -79l103 -29h2l102 29l14 155h-183l-5 51h193zM311 513h402l-37 -410l-165 -46l-163 46z" />
    <glyph glyph-name="uniE613" unicode="&#xe613;" horiz-adv-x="1025" 
d="M512 896q-104 0 -199 -40.5t-163.5 -109t-109 -163.5t-40.5 -199t40.5 -199t109 -163.5t163.5 -109t199 -40.5t199 40.5t163.5 109t109 163.5t40.5 199t-40.5 199t-109 163.5t-163.5 109t-199 40.5zM512 -110q-101 0 -192.5 39t-157.5 105t-105 157.5t-39 192.5t39 192.5
t105 157.5t157.5 105t192.5 39t192.5 -39t157.5 -105t105 -157.5t39 -192.5t-39 -192.5t-105 -157.5t-157.5 -105t-192.5 -39zM580 60q-15 0 -25.5 10.5t-10.5 25.5v84h-67v-84q0 -15 -11 -25.5t-26 -10.5t-26 10.5t-11 25.5v84h-17q-22 0 -37.5 15.5t-15.5 37.5v276h359
v-276q0 -22 -15.5 -37.5t-36.5 -15.5h-23v-84q0 -15 -11 -25.5t-26 -10.5zM459 198h102v-102q0 -7 5.5 -13t13.5 -6t13.5 6t5.5 13v102h41q14 0 24.5 10t10.5 25v258h-324v-258q0 -15 10 -25t25 -10h35v-102q0 -7 5.5 -13t13.5 -6t13.5 6t5.5 13v102zM692 520h-359v9
q0 74 52.5 126.5t127 52.5t127 -52.5t52.5 -126.5v-9zM351 537h324q-4 64 -51 109t-111.5 45t-111.5 -45t-50 -109zM283 321q-15 0 -26 10.5t-11 26.5v113q0 15 11 25.5t26 10.5t26 -10.5t11 -25.5v-113q0 -16 -11 -26.5t-26 -10.5zM283 490q-8 0 -13.5 -6t-5.5 -13v-113
q0 -8 5.5 -13.5t13.5 -5.5t13.5 5.5t5.5 13.5v113q0 7 -5.5 13t-13.5 6zM741 321q-15 0 -26 10.5t-11 26.5v113q0 15 11 25.5t26 10.5t26 -10.5t11 -25.5v-113q0 -16 -11 -26.5t-26 -10.5zM741 490q-8 0 -13.5 -6t-5.5 -13v-113q0 -8 5.5 -13.5t13.5 -5.5t13.5 5.5t5.5 13.5
v113q0 7 -5.5 13t-13.5 6z" />
    <glyph glyph-name="uniE614" unicode="&#xe614;" 
d="M512 896q-138 0 -256 -69t-187 -187t-69 -256t69 -256t187 -187t256 -69t256 69t187 187t69 256t-69 256t-187 187t-256 69zM512 -112q-205 0 -350.5 145.5t-145.5 350.5t145.5 350.5t350.5 145.5t350.5 -145.5t145.5 -350.5t-145.5 -350.5t-350.5 -145.5zM792 254
q-18 11 -38 29q-2 3 -6 7l-6 6q-34 49 -24 108.5t60 94.5l6 5l-5 6q-26 36 -65 58q-26 13 -54 13t-54 -13q-4 -3 -13.5 -7t-13.5 -6q-15 -8 -33 -11q8 3 20 10q34 15 57 44t30 66q4 24 1 51l-3 18l-22 -7q-71 -22 -101 -88q-20 -44 -10 -94h-4q-20 7 -40 19q-35 22 -77 15
q-48 -8 -88 -35t-63 -69q-36 -64 -24 -140q12 -102 64 -200q21 -42 60 -75q24 -22 59 -22q20 0 35 6q4 2 13 5t13 5l9 3q40 17 82 2q3 -1 9.5 -3.5t9.5 -3.5q7 -2 14 -5q52 -18 98 10q61 34 91 99q22 39 19 83q5 9 -6 16zM544 632q27 60 91 80l5 2q3 -27 -2 -47
q-7 -32 -27.5 -58t-50.5 -39q-10 -6 -26 -12h-1q-3 39 11 74zM768 162q-26 -58 -85 -93q-38 -24 -85 -8l-14 5q-4 1 -10 3.5t-8 2.5q-48 18 -92 -2l-8 -3q-5 -1 -14 -4.5t-14 -4.5q-19 -9 -40 -5.5t-38 17.5q-32 26 -56 71q-50 91 -62 193q-10 68 22 130q22 39 58.5 64.5
t80.5 31.5q5 2 16 2q24 0 50 -13q24 -15 43 -21q42 -8 75 11q4 2 13.5 6t13.5 7q46 25 92 0q34 -17 56 -46q-51 -40 -60.5 -104t28.5 -117q1 -3 5.5 -8t6.5 -8q26 -23 42 -32q2 0 2 -3q2 -35 -18 -72z" />
    <glyph glyph-name="uniE615" unicode="&#xe615;" 
d="M544.5 746q-112.5 0 -208 -55.5t-151 -151t-55.5 -208t55.5 -208t151 -151t208 -55.5t208 55.5t151 151t55.5 208t-55.5 208t-151 151t-208 55.5zM544 -66q-108 0 -199.5 53t-145 145t-53.5 200t53.5 199.5t145 145t199.5 53.5t200 -53.5t145 -145t53 -199.5t-53 -200
t-145 -145t-200 -53zM236 545v-397h296v-93h-85v-18h191v18h-86v93h296v397h-612zM829 240h-574v287h574v-287z" />
    <glyph glyph-name="uniE616" unicode="&#xe616;" 
d="M512 -128q-138 0 -256 69t-187 187t-69 256t69 256t187 187t256 69t256 -69t187 -187t69 -256t-69 -256t-187 -187t-256 -69zM512 880q-205 0 -350.5 -145.5t-145.5 -350.5t145.5 -350.5t350.5 -145.5t350.5 145.5t145.5 350.5t-145.5 350.5t-350.5 145.5zM512 18
q-6 0 -8 1l-195 55q-15 3 -13 17q-2 15 -4 45t-4 45q-2 16 -4 47.5t-4 46.5l-29 336h525l-2 -14q0 -11 -1 -16l-11 -120q-3 -27 -5 -53q-1 -10 -2.5 -28t-2.5 -28l-10 -109q0 -9 -2 -25.5t-2 -25.5q-4 -29 -4 -43l-4 -58q1 -6 -3.5 -11t-11.5 -6l-193 -53q-4 -3 -10 -3z
M267 594l29 -319q7 -69 8 -96q2 -15 4 -45.5t4 -45.5l2 -2l195 -54h9l196 54l1 2q3 38 5 59q3 29 3 43q2 16 5 52l8 110q1 10 2.5 28t2.5 28q2 26 5 53l11 120q0 2 0.5 6t0.5 7h-491zM512 126q-5 0 -6 2l-120 32q-6 0 -9.5 5t-3.5 11l-10 107h67h5q7 0 10 -6.5t3 -9.5
t1.5 -20t1.5 -20l61 -16h3l61 16q3 39 6 55l2 12h-222l-20 210h317q13 0 18 -5q3 -3 3 -17q-2 -22 -5 -48v-2q-2 -7 -9 -10q-7 -2 -12 0h-220h-2v-1l2 -11q0 -6 1 -17t2 -17v-2v-1l81 1h136q10 0 15 -4q3 -5 3 -15q-2 -26 -5 -53l-1 -25q-1 -5 -2 -14.5t-2 -14.5
q-4 -62 -4 -66q0 -10 -8 -20q-8 -8 -18 -8q-11 -4 -34.5 -10t-34.5 -10q-5 -1 -18.5 -5t-21.5 -6q-6 3 -11 3zM379 269q0 -5 2 -8v-5l8 -78l120 -34h6q5 1 18.5 5t21.5 6q12 3 35.5 9.5t35.5 9.5h1q5 0 8 3.5t3 8t5 67.5q1 4 2 13.5t1 13.5l2 26q2 26 5 52v2h-215q-8 0 -9 2
q-7 3 -7 9v7q0 12 -3 32l-3 11q0 12 3 14q3 5 15 5h222h5q3 32 5 45v5h-5h-299l16 -178h222l-3 -30q-1 -9 -2.5 -27.5t-2.5 -27.5q0 -6 -4 -10t-10 -4l-60 -16q-5 -3 -12 0l-61 16q-5 1 -9 5.5t-2 10.5q0 2 -1 7.5t-1 8.5q0 4 -1 11t-1 11zM450 229zM430 270zM582 742
q-7 -9 -11 -17q-1 3 -11 17q-3 6 -10 8h-193v-32h-13v32h-48v-112h48v32h13v-32h48v64h29v-64h49v64h26v-64h48v29l14 -22l15 22v-29h48v112h-37q-9 0 -15 -8zM389 654h-16v32h-45v-32h-16v80h16v-32h45v32h16v-80zM494 718h-27v-64h-17v64h-29v16h73v-16zM618 734v-81h-16
v45h-15l-16 -26l-14 22l-3 4h-13v-45h-16v81h22l26 -40q25 40 25 42h20v-2zM682 686v64h-48v-112h92v48h-44zM712 654h-61v80h16v-64h45v-16z" />
    <glyph glyph-name="uniE617" unicode="&#xe617;" 
d="M218 286q-2 18 -2 36q0 125 88 213.5t213 88.5q83 0 152.5 -41t109.5 -110l-70 -24q3 -2 7 -4t15.5 -9t22 -13t24.5 -13.5t24.5 -12.5t19 -8.5t10.5 -2.5q7 2 22 33.5t27 62.5l12 31l-66 -23q-46 83 -128.5 133.5t-181.5 50.5q-95 0 -176 -47t-128 -128.5t-47 -176.5v-12
v-3q0 -13 8.5 -22t21.5 -9t22 10zM866 275q0 12 -9 21t-22 9q-9 0 -17 -5q-8 -118 -95 -199t-206 -81q-62 0 -117.5 24t-97.5 66l64 24q-1 1 -3.5 2t-9.5 6l-14 8q-7 5 -17 11t-19 11t-18 9.5t-16.5 8t-13 5.5t-7.5 1q-6 -2 -20.5 -33.5t-26 -61.5t-11.5 -31l61 22
q49 -57 118.5 -89.5t147.5 -32.5q132 0 230.5 85t117.5 213q0 2 1 4v1v2z" />
    <glyph glyph-name="uniE618" unicode="&#xe618;" 
d="M525 693q-100 0 -184.5 -49t-133.5 -133.5t-49 -184.5t49 -184.5t133.5 -133.5t184.5 -49t184.5 49t133.5 133.5t49 184.5t-49 184.5t-133.5 133.5t-184.5 49zM758.5 92.5q-45.5 -45.5 -105.5 -71.5q-61 -25 -128 -25t-129 25q-59 26 -104.5 71.5t-70.5 104.5
q-26 62 -26 129t26 128q25 60 70.5 105.5t104.5 70.5q62 26 129 26t128 -26q60 -25 105.5 -70.5t70.5 -105.5q26 -61 26 -128t-26 -129q-25 -59 -70.5 -104.5zM715 457l-2 16h-16q-5 0 -13 -1t-12 0h-1q-41 2 -74 17q-29 12 -47 32h-1q0 -1 -1 0h-2v0q-1 -1 -3 0h-1v0h-2h-2
v-1q-1 0 -1 1h-1l-1 -1v1h-1v0q-1 0 -1 -1v1q-1 -1 -1 0q-1 -1 -2 0v0l-1 -1q-1 0 -1 1h-1v0h-1h-1q0 -1 -1 0q-2 -1 -2 0v0q-1 0 -1 -0.5t-1 -0.5q-1 1 -2 1v0v0h-1v0v0v0h-1v0h-1v0h-1v0v0h-1v0v0h-1v0h-1v0h-1v0h-1v0v0v0v0h-1v0v0h-1v0v0v0h-1v-1q-1 0 -1 1h-1v0v0v0v0
h-1v-1l-1 1v-1l-1 1v0v0h-1v0h-1v0q-24 -24 -57 -36q-42 -16 -87 -11l-18 2l-2 -18q-7 -82 14 -170v-1l2 -4q2 -8 3 -11v-1v-1q27 -89 89 -139l2 -1l1 -1q2 -1 3 -2q2 -3 6 -4l3 -3l3 -1q5 -3 15 -8q30 -17 49 -21h1h1q12 4 32 12q24 9 59 38q6 5 15 16l7 7q3 3 7 9q2 4 3 4
l1 1l1 2q11 15 16 24q12 24 22 48q3 7 7 20q0 3 1 4v1q1 3 3 11q5 17 6 27q14 88 8 143zM672 320q-1 -8 -6 -23l-3 -12q0 -2 -1 -4q-3 -12 -5 -16v-1q-9 -22 -21 -44v-1q-4 -6 -12 -19q-3 -2 -7 -8q-2 -3 -2 -4q-4 -3 -9 -9q-7 -8 -10 -11h-1q-31 -26 -49 -33q-14 -6 -21 -8
q-11 3 -32 15q-9 5 -14 7l-1 1q-3 3 -7 5q-3 3 -7 5q-52 43 -75 119q-1 6 -5 16q0 1 -1 2q-17 73 -13 140q94 -2 154 58q53 -54 145 -59h11q3 -44 -8 -116z" />
    <glyph glyph-name="uniE619" unicode="&#xe619;" 
d="M512 -65q-91 0 -174.5 36t-143.5 96t-95.5 143.5t-35.5 174.5t35.5 174t95.5 143t143.5 95.5t174.5 35.5q136 0 233 -68q7 -5 8 -12.5t-3.5 -14t-12 -8t-14.5 2.5q-87 62 -211 62q-111 0 -206 -55t-150 -149.5t-55 -205.5q0 -112 55 -206.5t150 -150t206 -55.5t206 55
t150 149.5t55 206.5q0 74 -25 142.5t-70 118.5q-5 6 -5 13.5t6 13t14 5t13 -6.5q50 -54 77.5 -129.5t27.5 -156.5q0 -91 -35.5 -174t-95.5 -143.5t-143.5 -96t-174.5 -35.5zM377 304h-172q-22 0 -22 12v81q0 5 7 13l108 108q8 8 14 8h65q12 0 12 -24v-186q0 -7 -2.5 -9.5
t-9.5 -2.5zM219 340h135v150h-35l-100 -100v-50zM785 604h-363q-8 0 -13 -5.5t-5 -12.5v-264q0 -7 5 -12.5t13 -5.5h363q7 0 12.5 5.5t5.5 12.5v264q0 7 -5.5 12.5t-12.5 5.5zM440 340v228h264l-252 -228h-12zM767 340h-91l91 82v-82zM767 470l-144 -130h-33l177 159v-29z
M767 547l-230 -207h-32l252 228h10v-21zM319 154q-28 0 -47.5 20t-19.5 47.5t19.5 47.5t47.5 20t47.5 -20t19.5 -47.5t-19.5 -47.5t-47.5 -20zM319 253q-13 0 -22.5 -9t-9.5 -22t9.5 -22.5t22.5 -9.5t22 9.5t9 22.5t-9 22t-22 9zM727 154q-28 0 -47.5 20t-19.5 47.5
t19.5 47.5t47.5 20t47.5 -20t19.5 -47.5t-19.5 -47.5t-47.5 -20zM727 253q-13 0 -22.5 -9t-9.5 -22t9.5 -22.5t22.5 -9.5t22 9.5t9 22.5t-9 22t-22 9zM630 248h-214q-8 0 -13 5t-5 12.5t5 12.5t13 5h214q7 0 12.5 -5t5.5 -12.5t-5.5 -12.5t-12.5 -5zM219.5 221q-7.5 0 -13 5
t-5.5 13q0 42 30 71.5t72 29.5q7 0 12.5 -5t5.5 -12.5t-5.5 -12.5t-12.5 -5q-27 0 -46.5 -19.5t-19.5 -46.5q0 -8 -5 -13t-12.5 -5z" />
    <glyph glyph-name="uniE61A" unicode="&#xe61a;" 
d="M512 855q-94 0 -180 -35.5t-153 -102.5t-102.5 -153t-35.5 -180t35.5 -180t102.5 -153t153 -102.5t180 -35.5t180 35.5t153 102.5t102.5 153t35.5 180t-35.5 180t-102.5 153t-153 102.5t-180 35.5zM512 -128q-103 0 -196.5 38.5t-166 111t-111 166t-38.5 196.5
t38.5 196.5t111 166t166 111t196.5 38.5t196.5 -38.5t166 -111t111 -166t38.5 -196.5t-38.5 -196.5t-111 -166t-166 -111t-196.5 -38.5zM360 368h124v-204l223 248h-159l79 212h-139zM443 57v270h-150l170 338h223l-79 -212h192z" />
    <glyph glyph-name="uniE61B" unicode="&#xe61b;" 
d="M512 -212q-139 0 -257 68.5t-186.5 186.5t-68.5 257t68.5 257t186.5 186.5t257 68.5t257 -68.5t186.5 -186.5t68.5 -257t-68.5 -257t-186.5 -186.5t-257 -68.5zM512 755q-93 0 -177 -36t-145 -97t-97 -145t-36 -177t36 -177t97 -145t145 -97t177 -36t177 36t145 97
t97 145t36 177t-36 177t-97 145t-145 97t-177 36zM739 129v-57h-454v57h201l-201 228h142v227h170v-227h142l-201 -228h201z" />
    <glyph glyph-name="uniE61C" unicode="&#xe61c;" 
d="M538 173l-58 -19v-45v-7q7 -3 27.5 -6.5t30.5 -5.5q0 -13 12 -39q-8 -5 -16 -13t-14.5 -16t-7.5 -9q3 -7 12.5 -19.5t13.5 -19.5q12 7 51 20q6 -13 32 -26q-13 -38 -13 -58q3 -1 12 -7t16.5 -9t16.5 -3q25 26 38 45q13 -6 39 -6q12 -39 12 -58h45h7q3 7 6.5 27.5
t5.5 30.5q13 0 39 12q5 -8 13 -16t16 -14.5t9 -7.5q7 3 19.5 12.5t19.5 13.5q-7 12 -20 51q20 19 26 32q38 -13 58 -13q1 3 7 12t9 16.5t3 16.5q-26 25 -45 38q6 13 6 39q39 12 58 12v45v7q-7 3 -27.5 6.5t-30.5 5.5q0 13 -12 39q8 5 16 13t14.5 16t7.5 9q-3 7 -12.5 19.5
t-13.5 19.5q-12 -7 -51 -20q-6 4 -15.5 13.5t-16.5 12.5q13 38 13 58q-3 1 -12 7t-16.5 9t-16.5 3q-6 -13 -38 -45q-13 6 -39 6q0 32 -12 58h-45h-7q0 -10 -3 -29t-3 -29q-13 0 -38 -12l-1 1l-1 1l-2 1l-1 1l-1 1l-1 1l-1 1l-1 1l-1 1l-1 2l-2 1l-1 1l-1 1l-1 2l-2 1l-1 1
l-1 1l-1 2l-2 1l-1 1l-1 1l-2 2l-1 1l-1 1l-1 2l-2 1l-1 1l-1 1l-1 1l-1 2l-1 1l-2 1q-11 -4 -26 -14t-19 -12q7 -12 20 -51q-4 -6 -13.5 -15.5t-12.5 -16.5q-38 13 -58 13q-12 -26 -19 -45q26 -25 45 -38q-6 -7 -6 -32zM730 301q62 9 115.5 -31.5t63.5 -103.5
q9 -62 -31.5 -115.5t-103.5 -63.5q-62 -9 -115.5 31.5t-63.5 103.5q-9 66 31 117.5t104 61.5zM685 147q0 -29 20.5 -49.5t49.5 -20.5t50 20.5t21 49.5t-21 50t-50 21t-49.5 -21t-20.5 -50zM378 128h-224q-39 0 -64.5 25.5t-25.5 64.5v524q0 39 25.5 64.5t64.5 25.5h524
q39 0 64.5 -25.5t25.5 -64.5v-236q45 -7 64 -13v275q0 53 -37.5 90.5t-90.5 37.5h-576q-53 0 -90.5 -37.5t-37.5 -90.5v-576q0 -53 37.5 -90.5t90.5 -37.5h256zM64 640h704v-64h-704v64z" />
    <glyph glyph-name="uniE61D" unicode="&#xe61d;" 
d="M619 -148h-504q-21 0 -36 15.5t-15 37.5v580l251 263h370q24 2 39 -13t12 -37v-300v-46h-60h-10v46v280h-336v-210h-196v-546h485v-70zM960 140h-160v160h-127v-160h-161v-127h160v-161h128v160h160v128z" />
    <glyph glyph-name="uniE61E" unicode="&#xe61e;" 
d="M827 458q-27 26 -81.5 79t-81.5 80q-5 5 -7 5t-8 -6q-329 -328 -370 -369q-9 -9 -12 -20q-13 -48 -58 -212q-4 -15 -5 -19q0 -6 6 -3h2q38 11 114.5 32.5t115.5 31.5q7 2 14 9q124 123 371 370q8 8 8 11t-8 11zM736 458l-140 -140q-171 -172 -206 -206q-7 -8 -16 -10
l-75 -21q-8 -2 -7 3q16 60 18 67q4 20 22 38l306 306q5 5 15.5 15t15.5 15t11 0q11 -10 30 -29t27 -26q6 -6 -1 -12zM1023 697q-4 48 -40 81.5t-87 33.5t-88 -37l-46 -47q-31 -30 -46 -44q-6 -6 0 -13q22 -20 59 -55q59 -58 111 -109q6 -6 12 0l45 45l45 45q34 35 36 89
q-1 9 -1 11zM939 638l-22 -22l-23 -23q-2 -3 -5 0q-25 24 -56 55q-1 0 -12 11t-17 16q-3 3 0 7q7 7 22.5 22t22.5 23q19 18 44.5 18t43.5 -16.5t20 -40.5v-3v-2q-1 -27 -18 -45zM1021 445q-1 -1 -6 -5l-33 -32l-32 -33q1 -256 0 -349q0 -76 -55 -125q-47 -41 -106 -41h-557
q-57 1 -102 39q-58 50 -58 127v546q0 76 56 126q42 37 98 40q9 0 144 1h216q33 32 65 64q5 5 4 7q0 1 -7 1h-301q-155 -1 -168 -1q-65 -3 -114 -47q-65 -58 -65 -147v-634q0 -91 67 -149q53 -45 119 -45h649q69 0 122 48q65 57 65 145q1 101 0 456q0 6 -1 8z" />
    <glyph glyph-name="uniE61F" unicode="&#xe61f;" horiz-adv-x="1340" 
d="M1111 -133h-882q-62 0 -106 43.5t-44 105.5v569q0 61 44 104.5t106 43.5h882q62 0 106 -43.5t44 -104.5v-569q0 -62 -44 -105.5t-106 -43.5zM229 665q-34 0 -57.5 -23.5t-23.5 -56.5v-569q0 -33 23.5 -56.5t57.5 -23.5h882q33 0 57 23.5t24 56.5v569q0 33 -24 56.5
t-57 23.5h-882zM1067 139q-5 1 -14 3.5t-31.5 10.5t-39.5 17t-31 23.5t-14 30.5q0 17 12.5 36.5t27 35.5t27 46.5t12.5 67.5q0 28 -6.5 52t-20.5 45t-40.5 33t-62 12t-62 -12.5t-40.5 -33.5t-20.5 -45t-6.5 -51q0 -37 12 -67.5t27 -46.5t27.5 -35.5t12.5 -36.5
q0 -25 -32.5 -46t-65.5 -30l-32 -9v-90h361v90zM580 461h-267q-15 0 -25 10t-10 24.5t10 24.5t25 10h267q15 0 25 -10t10 -24.5t-10 -24.5t-25 -10zM580 264h-267q-15 0 -25 9.5t-10 24t10 24.5t25 10h267q15 0 25 -10t10 -24.5t-10 -24t-25 -9.5zM580 66h-267q-15 0 -25 10
t-10 24t10 24t25 10h267q15 0 25 -10t10 -24t-10 -24t-25 -10z" />
    <glyph glyph-name="uniE620" unicode="&#xe620;" 
d="M64 752v-736h896v736h-896zM800 688h32v-32h-32v32zM736 688h32v-32h-32v32zM896 80h-768v512h768v-512zM896 656h-32v32h32v-32zM386 249l-44 -45l42 -43l45 45q24 -16 53 -22v-63h60v63q29 6 53 22l45 -45l42 43l-44 45q16 24 22 53h63v60h-63q-6 28 -22 53l44 45
l-42 42l-45 -45q-24 17 -53 22v64h-60v-64q-29 -5 -53 -22l-45 45l-42 -42l44 -45q-16 -25 -22 -53h-63v-60h63q6 -29 22 -53zM512 422q37 0 63.5 -26.5t26.5 -64t-26.5 -64t-63.5 -26.5t-63.5 26.5t-26.5 64t26.5 64t63.5 26.5z" />
    <glyph glyph-name="uniE621" unicode="&#xe621;" 
d="M384 384h-384v384h384v-384zM320 704h-256v-256h256v256zM384 256v-384h-384v384h384zM320 192h-256v-256h256v256zM896 256v-384h-384v384h384zM832 192h-256v-256h256v256zM1024 605l-291 291l-291 -291l291 -291z" />
    <glyph glyph-name="uniE622" unicode="&#xe622;" 
d="M885 96q-25 -75 -64 -133q-19 -27 -30.5 -42t-30.5 -34.5t-39 -28.5t-43 -9q-30 -1 -73.5 18t-79.5 19q-38 0 -81.5 -18.5t-71.5 -19.5q-21 -1 -41.5 8.5t-40.5 29.5t-33 36.5t-31 43.5q-31 44 -54.5 102t-36 121t-5.5 128t37 116q30 53 81.5 84.5t110.5 32.5
q33 1 85.5 -19.5t67.5 -20.5q14 0 44.5 12t66.5 23t68 7q15 0 32 -3.5t42.5 -12.5t50.5 -28.5t45 -47.5q-102 -69 -101 -177q1 -39 14 -73t29.5 -53.5t38 -35t30 -19.5t13.5 -6zM643 628q57 69 49 149q-35 -2 -73.5 -21.5t-64.5 -49.5q-24 -28 -39 -67t-10 -77q38 -2 75 17
t63 49z" />
    <glyph glyph-name="uniE623" unicode="&#xe623;" 
d="M115 304q0 90 37 174t99.5 146.5t148.5 101.5t180 43h-23q-112 0 -213 -37t-174 -99t-116 -148.5t-43 -180.5t43 -180t116 -148.5t174 -99.5t213 -37h23q-94 4 -180 43.5t-148.5 101.5t-99.5 146t-37 174zM603 688h-35q96 -6 174 -60t120.5 -139.5t42.5 -184t-42.5 -184
t-120.5 -140t-174 -60.5h35q85 0 161 31t129.5 82.5t84.5 122.5t31 148.5t-31 148t-84.5 122.5t-129.5 82.5t-161 30.5zM568 339q-2 -3 -5.5 -7.5t-4 -16.5t9.5 -22q5 -11 13 -14t20.5 -0.5t13.5 2.5l139 116q3 2 6 4.5t3.5 14.5t-9.5 28q-2 3 -6.5 9t-18.5 22.5t-30 29
t-41 25t-51.5 16.5t-61 -3.5t-70.5 -28.5l-151 -59q-7 -3 -18 -9t-36 -27t-39.5 -44t-14 -58t26.5 -71q23 -23 58 -46q139 -117 163 -128q4 -3 12.5 -6.5t33 -8.5t47.5 -3.5t52 14t52 38.5q7 8 19 19.5t42.5 43.5t54.5 58.5t45.5 52.5t24.5 36v35q-1 4 -4.5 8.5t-18.5 2.5
t-35 -23q-70 -81 -105 -116q-2 -3 -5.5 -6.5t-14.5 -11t-22.5 -10.5t-28.5 0t-33 16q-4 1 -13 6t-44.5 34.5t-82.5 75.5q-1 2 -4 4.5t-9.5 11t-9 17.5t-0.5 22.5t12 26.5q2 2 6 5l16 12q12 9 23.5 16t28 14.5t31 10.5t30.5 0.5t27 -12.5q35 -11 47 -23q2 -3 5.5 -7t4 -13.5
t-9.5 -14.5z" />
    <glyph glyph-name="uniE624" unicode="&#xe624;" horiz-adv-x="1025" 
d="M538 401zM700 386q14 7 17 23q4 18 -9 23l-23 2l-4 1v-2v-2l-3 -11q-2 -12 -5 -24l-3 -11v-3h6q16 0 24 4zM706 243l-8 -26q9 4 13 5l13 2l6 19h-24zM775 321q8 0 13 6q2 2 4 8q1 7 3 12q1 5 2 9q1 16 -10 16t-17 -28q-2 -9 -2 -14q0 -9 7 -9zM454 322q5 0 9 6q5 6 8 21
q6 24 -5 24q-12 0 -18 -27q-2 -9 -2 -15q0 -9 8 -9zM674 140h24l7 23h-24zM685 177q10 4 14 6l13 2l6 19h-24zM600 202l3 9h-36l-2 -9h28h6h1zM612 243h-38l-3 -16q6 3 12 4h26zM553 202v1v-1zM548 184l-13 -42q-1 -6 0 -7q0 -1 2 -2l12 51h-1zM974 619h-222q-4 1 -9 1h-294
h-7h-241q-27 0 -50.5 -19t-29.5 -46l-119 -511q-6 -26 8.5 -45t40.5 -19h256h7h252q-27 0 -41.5 19t-7.5 46l15 67h-2q-11 0 -16 1q-8 0 -9 1q-5 5 -5 7q0 3 2 11l40 132h26l9 40q-6 -1 -17 -1l-1 1q1 3 2.5 9t1.5 8l2 8q5 23 6 31q1 9 -6 9q-3 0 -10 -3q-1 -3 -7 -33
q-1 -5 -6 -28l-1 -2q-17 1 -33 0v1q1 5 7 31q7 30 10 54h1q19 3 34 6l2 -1l-3 -9l8 4q10 5 21 5q5 0 10 -1l37 162q6 24 26 42.5t44 21.5h2h9q-24 -3 -43.5 -21.5t-25.5 -42.5l-40 -173q2 -7 -4 -32l-2 -9q-4 -20 -7 -36l-2 -1h-4l-10 -46l4 2l20 4h46l-15 -52
q-4 -11 -8 -17q-3 -5 -8 -7q-6 -4 -11 -4h-14h-31l-12 -50l9 1l-6 -23h-8l-16 -67q-6 -27 8.5 -46t41.5 -19h255h2q24 4 44 22t25 42l119 511q6 26 -8.5 45t-40.5 19zM213 313q-18 -10 -46 -10q-38 0 -48 17q-4 7 -4 17l3 24l2 7l19 84q1 4 1 5q1 -1 43 0v-1l-22 -85l-3 -22
v-4q1 -17 19 -17q11 0 19 7q10 8 16 36l4 21q5 20 10 41.5t5 23.5q4 -1 36 0v-1l-22 -88l-3 -8q-9 -35 -29 -47zM348 350l-2 -9q-5 -21 -8 -36l-1 -1q-15 0 -26 -1l-60 -258q-7 -27 7.5 -46t41.5 -19h-14q-27 0 -41.5 19t-7.5 46l75 323q-1 1 -3 1q-3 0 -9 -3q-1 -4 -7 -33
q-3 -13 -6 -28l-1 -1q-17 0 -33 -1l-1 1q4 15 8 31q6 30 9 54h1q19 3 35 6l1 -1l-2 -9q6 4 8 4q3 2 5 3l39 163q5 24 25 42.5t44 21.5h2h11h1q-24 -3 -44 -21.5t-26 -42.5l-37 -161h1q14 0 18 -10q3 -7 -3 -34zM402 356q-1 -1 -2.5 -8t-2.5 -10q-4 -20 -4.5 -21.5t-0.5 -3
t-0.5 -4t-0.5 -4.5l-1 -1h-1h-17q-4 0 -17 -1l-1 1q1 6 4 13q2 5 4 13q3 13 4 22q1 5 3 17l1 1q2 0 8 1t9 2q5 0 18 3l1 -1v-1q-1 -3 -2.5 -10t-1.5 -8zM403 382q-15 -10 -28 -3q-6 4 -5 9t7 10q16 10 29 3q5 -4 4.5 -9t-7.5 -10zM415 347q5 22 17 33q14 14 38 14
q22 0 31 -12q9 -11 4 -34q-5 -20 -15 -30q-15 -16 -41 -16q-12 0 -20 3q-22 9 -14 42zM515 199h-32l-6 -16h34l-6 -21h-34l-8 -26q-1 -4 11 -4l17 2l-7 -22h-37q-3 0 -9 1q-3 1 -6 5q-3 5 -2 8l11 36h-18l6 21h18l5 16h-18l6 19h81zM528 253l-6 -20h-46l-5 -4
q-1 -1 -2.5 -1.5t-2.5 -1.5q-8 -4 -15 -4h-15l6 20h4q6 0 8 1t5 6l8 15h33l-6 -11h34zM790 392q7 -3 11 -10q1 3 1 4l1 1q20 3 35 6l1 -2l-9 -36q-6 -25 -10 -52l-1 -1h-35l-1 1q1 1 1.5 2.5t0.5 2.5q-9 -7 -17 -8q-9 0 -18 4q-22 8 -14 41q5 22 17 33q10 9 20.5 12.5
t16.5 1.5zM613 303q25 101 25 103l10 46q1 4 1 6q7 -1 44 -1h11q40 0 50 -13q5 -7 5 -18q0 -7 -2 -14q-6 -25 -25 -40q-19 -13 -63 -13h-2l-4 -3l-5 -21l-1 -7q-1 -7 -3 -15t-2 -10h-39zM623 167q-2 -6 -6 -9q-6 -5 -15 -5l-16 -1v-14q0 -3 2 -4l2 -2l5 1h15l-6 -20h-18
q-20 0 -24 2q-3 2 -3 8l1 56h28l-1 -12h7q4 0 5 1t2 3l2 9h22zM719 112h-29l2 7h-61l7 20h6l31 104l6 21h31l-3 -10q8 6 15 8q7 1 48 2h32l1 -12q0 -3 5 -3h7l-6 -20h-18q-21 -1 -20 13l-1 12l-3 -11h-10l-31 -103h8l-6 -21h-9zM853 204h-33l-5 -16h33l-5 -18h-36l-6 -7h14
l4 -23l1 -4q1 -1 8 -1h4l-7 -22h-11h-7q-2 0 -8 4q-5 2 -6 7l-3 22l-16 -22q-9 -12 -24 -12h-22l6 20h8q3 0 6 1q3 2 5 4l23 33h-30l5 18h35l5 16h-35l6 20h97zM860 242q-7 -12 -23 -12h-20l6 19h4q3 0 4 1q1 0 3 2l7 11q5 9 11.5 20.5t11.5 18.5q-2 13 -5 38q0 4 -1 11.5
t-2 11.5q-1 15 -3 23v0v2l1 1q9 1 33 5l1 -1l2 -43v-1v-1q4 8 9 17t11 22v0v1l1 1q15 2 33 5l2 -1z" />
    <glyph glyph-name="uniE625" unicode="&#xe625;" 
d="M390 265q-17 -10 -30.5 -11.5t-20.5 3.5t-12 10.5t-6 11.5l-1 5l-77 178q-19 56 4 51q9 -2 22 -12q47 -36 83 -58q16 -9 35 -10.5t30 1.5l12 3l502 231q-71 88 -181.5 139t-237.5 51q-104 0 -199 -35.5t-163.5 -95.5t-109 -142.5t-40.5 -173.5q0 -104 52 -195.5
t142 -153.5l-21 -122q-1 -2 -1 -4t-0.5 -7.5t2 -8t8 -4t16.5 4.5q29 13 125 76q91 -32 189 -32q104 0 198.5 35.5t163.5 95t109.5 142.5t40.5 173q0 105 -54 199q-528 -316 -580 -345v0zM390 265z" />
    <glyph glyph-name="uniE626" unicode="&#xe626;" horiz-adv-x="1294" 
d="M826 167q39 72 69.5 150.5t40.5 121.5l11 42h-16h-137h-145v113h354v49h-354v169h-162v-169h-322v-49h322v-113h-274v-48h557q0 -6 -1 -8t-7 -8q0 -26 -13 -65.5t-25.5 -65.5t-34.5 -71q-60 24 -115 41.5t-98.5 27.5t-84 15.5t-69.5 7.5t-57.5 -1t-45.5 -6t-36 -9.5
t-26.5 -10t-19.5 -10.5l-12 -6q-57 -40 -87.5 -85t-35 -86t4 -81t29 -72t43 -56t42 -36.5t28.5 -11.5q71 -15 136.5 -17t121 9.5t105 31t93 50t79 63.5t69.5 73q9 -8 25 -8q39 -22 168 -84t238 -114l110 -52v242q-11 0 -27 2.5t-39.5 8.5t-45 11.5t-55 16t-57 18t-63 20.5
t-60.5 20l-63 21q-42 14 -58 19zM616 94q-41 -52 -88 -90t-88.5 -57.5t-85.5 -29t-77 -9.5t-66 5t-49.5 10t-28.5 10q-36 9 -59 43t-27.5 74t15 80.5t63.5 60.5q71 23 143.5 25.5t139.5 -14t116.5 -35.5t108.5 -48q-4 -8 -8 -14t-6 -8zM616 94z" />
    <glyph glyph-name="uniE627" unicode="&#xe627;" 
d="M1032 580v103h-384v-103h163v-98q0 -24 -9.5 -32.5t-28.5 -8.5v-31q50 2 73 22t23 61v87h163v0zM977 612h-273v39h273v-39zM977 612zM869 760h-58v-24h-177v-32h412v32h-177v24zM869 760zM634 411h33q31 27 53 64t29 60l6 24h-63q-10 -80 -58 -148zM634 411zM925 559
q3 -10 7.5 -26t27 -55.5t53.5 -66.5h33q-48 68 -58 148h-63zM925 559zM1107 411h32q31 27 53 64t29 60l6 24h-63q-10 -80 -57 -148zM1107 411zM1398 559q2 -10 7 -26t27.5 -55.5t53.5 -66.5h32q-47 68 -57 148h-63zM1398 559zM1251 736l12 25h-58l-11 -25h-87v-32h72
l-58 -124h167v-98q0 -24 -9.5 -32.5t-28.5 -8.5v-31q49 2 72 22t23 61v87h159v32h-159v69h-57v-69h-94l43 92h281v32h-267zM1251 736zM394 672q-110 96 -318 96h-163v-766h163q208 0 318 96q110 97 110 287t-110 287zM310 180q-73 -67 -220 -67h-57v543h57q147 0 220 -67
q73 -66 73 -204t-73 -205v0zM310 180zM-298 306q0 -76 -10 -106q-9 -28 -32 -46q-27 -21 -66 -31q-38 -9 -93 -10h-13v-111h12h6q164 0 242 67q79 68 79 204v495h-125v-462v0zM-298 306zM1036.5 314q-63.5 0 -108 -45t-44.5 -108.5t44.5 -108t108 -44.5t108.5 45t45 108
t-45 108t-108.5 45zM1037 54q-45 0 -76 31.5t-31 75.5t31 75.5t75.5 31.5t76 -31.5t31.5 -75.5t-31.5 -75.5t-75.5 -31.5zM1037 54zM538 121q-12 0 -20.5 -8.5t-8.5 -20.5t8.5 -20.5t20.5 -8.5t21 8.5t9 20.5t-9 20.5t-21 8.5zM538 121zM1478 305l-103 -194l-104 194h-47
v-288h45v194l106 -190l105 190v-194h46v288h-48zM1478 305zM848 81q-30 -27 -70 -27q-45 0 -76 31t-31 75.5t31 76t76 31.5q40 0 70 -27l4 -3l33 32l-4 4q-44 40 -103 40q-64 0 -108.5 -45t-44.5 -108.5t44.5 -108t108.5 -44.5q59 0 103 40l3 3l-32 33l-4 -3v0zM848 81z" />
    <glyph glyph-name="uniE628" unicode="&#xe628;" horiz-adv-x="1025" 
d="M311 371h-54l-22 -135h51q2 0 6 0.5t15 5t19.5 12.5t15.5 26t8 43q1 23 -8.5 35t-19.5 12zM772 371h-54l-22 -135h50q3 0 7 0.5t15 5t19 12.5t15.5 26t8.5 43q1 23 -8.5 35t-20.5 12zM512.5 597q-139.5 0 -257.5 -43t-186.5 -116t-68.5 -159.5t68.5 -160t186.5 -116
t257.5 -42.5t257.5 42.5t186.5 116t68.5 160t-68.5 159.5t-186.5 116t-257.5 43zM283 186h-55l-15 -84h-59l53 318q75 -1 124 0q42 1 66.5 -33.5t8.5 -98.5q-8 -31 -23.5 -53.5t-31.5 -30.5t-32.5 -14t-25.5 -4t-10 0zM546 186q14 74 20 125q0 3 2 14t2 16t-1 13t-5.5 11
t-13.5 3l-61 1l-31 -183h-57l54 320h59l-15 -86h61q0 -1 8 0.5t20 -2.5t22.5 -10t17 -21.5t3.5 -37.5q-4 -35 -11 -76t-12 -64l-4 -23h-58zM867 288q-8 -31 -23.5 -53t-32 -31t-32 -14t-25.5 -4h-10h-55l-15 -84h-59l53 318q75 -1 124 0q42 1 66.5 -33.5t8.5 -98.5z" />
    <glyph glyph-name="uniE629" unicode="&#xe629;" 
d="M412 300q-72 37 -138 37q-9 0 -18 -1q-67 -5 -139 -30q-16 -6 -27 -11l-90 -311q92 34 166 34q93 0 188 -62l95 323q-22 13 -37 21zM528 221l-90 -314q112 -64 186 -64q83 0 191 44l86 302q-88 -29 -167 -29q-119 0 -206 61zM293 443q88 -1 181 -60l93 317
q-66 38 -108 49q-37 8 -77 8q-77 -1 -173 -40l-88 -310q96 36 172 36v0zM1024 614q-89 -35 -171 -35q-114 0 -203 63l-92 -318q93 -60 198 -60q86 0 175 40v3h4z" />
    <glyph glyph-name="uniE62A" unicode="&#xe62a;" 
d="M745 714q-8 -6 -27 -18.5t-33.5 -23t-28.5 -22.5q-4 -2 -16.5 -11.5t-18.5 -15.5l-15 -15q-10 -10 -14.5 -20t-5.5 -20q-1 -17 10.5 -40t23 -41t15.5 -44t-13 -49q-8 -12 -22.5 -22.5t-23.5 -15t-36 -16.5q-2 4 0.5 7.5t8 8.5t7.5 7q16 27 15.5 43.5t-11 36t-23 35.5
t-21 41t-4.5 52q17 115 233 143zM389 381q-8 -4 -28.5 -9.5t-36.5 -12.5t-24 -19q4 -3 8.5 -5t10 -3.5t9.5 -2.5t12 -2t11 -1t12 -0.5t11 -0.5q174 -8 335 20q3 -6 -23 -25q-40 -30 -149.5 -41.5t-213.5 -4.5q-20 1 -40 4t-44 8.5t-39 15.5t-16 23q0 10 7 18t21.5 13.5
t28 9.5t34.5 6.5t32.5 3.5t30.5 2q7 1 10 1q38 3 41 2zM335 266q6 -2 4 -3.5t-6 -6t-3 -8.5q21 -20 70 -26.5t94 -3t85 11.5q5 1 18.5 6t19.5 4q14 -1 34 -17.5t30 -17.5q-60 -27 -157 -36.5t-181 5.5q-28 5 -53 16.5t-26 26.5q-3 34 71 49zM369 161q3 -2 2.5 -3t-3 -3.5
t-2.5 -3.5q11 -19 49 -24t75.5 -1t72.5 12q4 1 16 6t18 4q16 -1 35.5 -18.5t30.5 -19.5q-66 -40 -180.5 -46t-180.5 38q0 7 0.5 13t1.5 10t4.5 8.5t5.5 7t8 5.5t7.5 4t9.5 3.5t9.5 3t10.5 2.5t10 2zM294 84q-5 -1 -31 -2.5t-41.5 -7.5t-16.5 -20q-1 -9 11 -19t25 -15
q60 -23 173.5 -28t215.5 8q30 3 56.5 8.5t57 16t45.5 28.5t10 42q15 -2 26 -11t12 -23q3 -25 -20.5 -45t-62.5 -32.5t-72.5 -19.5t-64.5 -10q-102 -14 -227 -8t-203 33q-79 28 -77 69q2 27 38.5 43t80.5 14t65 -21zM512 -128q-176 19 -266 59q105 -25 224 -30t235 17t184 72
q1 1 6.5 6t9.5 7.5t9 1.5q-6 -19 -18.5 -35.5t-25 -28t-34 -21t-36.5 -15t-43.5 -11.5t-43 -8.5t-47 -7t-44.5 -6.5h-110zM579 888q30 -29 30 -82q0 -34 -18 -67.5t-40 -55.5t-52.5 -51.5t-45.5 -47.5q-26 -35 -25 -62q0 -24 14 -52.5t35 -60t27 -46.5q-74 49 -110 93
q-17 20 -28 43t-15.5 52t10.5 53q14 26 45 53.5t60.5 48t61 49.5t46.5 56q23 44 5 77zM730 356q26 22 59.5 24.5t59 -17.5t27.5 -56q2 -42 -25 -75t-64 -49.5t-75 -18.5q6 6 24 20.5t31 26.5t27 29.5t19.5 37t0.5 39.5q-5 22 -29.5 33.5t-54.5 5.5z" />
  </font>
</defs>
</svg>
