<svg width="950" height="670" xmlns="http://www.w3.org/2000/svg" fill-rule="evenodd" clip-rule="evenodd" stroke-linejoin="round" stroke-miterlimit="1.414"><clipPath id="a"><path d="M-.53.234h950.67v670.68H-.53z"/></clipPath><g clip-path="url(#a)"><path d="M-360.148-331.193H2200.9V1269.74H-360.148V-331.193zm420.59 515.587l350.428-.232-2.66 223.898-347.768 4.89V184.395zm0-123.498l352.684.083v113.97l-352.684 3.797V60.897z" fill="#22bda0"/></g><path fill="#f4c077" d="M144.126 530.55h712.398v18.743H144.126z"/><path d="M144.126 549.293l25.09 41.61h715.553l-28.246-60.353v18.743H144.126z" fill="#015e40" fill-opacity=".196"/><path fill="#dba962" d="M169.215 549.293h666.15v6.962h-666.15z"/><path fill="#f4c077" d="M201.35 556.255h18.88V672.32h-18.88zM783.864 556.255h18.88V672.32h-18.88z"/><path fill="#bb7c24" fill-opacity=".498" d="M201.35 556.255h18.88V569h-18.88zM783.864 556.255h18.88V569h-18.88z"/><path d="M44.126 412.95h386V37.953h-386v375zm23-348h340v103.334h-340V64.95zm-.307 342.872l.306-217.87h340.6v218l-340.907-.13z" fill="#fff" fill-rule="nonzero"/><path fill="#d6d7d7" fill-rule="nonzero" d="M60.126 65.027h7v103.257h-7zM60.126 174.95h353l-6-6.666h-347v6.667zM60.442 189.95h6.693v217.872h-6.693zM409.345 407.853l-348.903-.03v5.03h355.436l-6.533-5z"/><path fill="#fff" fill-rule="nonzero" d="M16.126 412.95h440.08v18H16.126zM41.127 435.353h398v10.598h-398z"/><path fill="#d6d7d7" fill-rule="nonzero" d="M41.127 430.95h398v4.403h-398z"/><path fill="#015e40" fill-opacity=".2" fill-rule="nonzero" d="M430.126 43.95h9v369h-9z"/><path d="M16.126 430.95l25 25.002h455.21l-40.13-43v18H16.126z" fill="#015e40" fill-opacity=".196"/><g><path fill="#c17101" d="M212.81 503.374h63.484v27.133H212.81z"/><path fill="#e29908" d="M208.662 490.812h71.264v12.563h-71.264z"/><path d="M212.81 503.374h63.484v8.79l-60.933-6.058-2.55-2.732z" fill="#985702"/><path d="M260.62 464.295l14.65-4.54.024 5.388-14.674 4.76v-5.608zM218.224 477.443l8.912 3.6.015-4.272-8.926-3.774v4.447zM228.117 460.136l8.912 3.6.014-4.272-8.927-3.775v4.446z" fill="#a5e708"/><path fill="#05f535" d="M246.16 445.36h8.233v45.77h-8.233zM235.784 450.478h8.233v40.307h-8.233zM225.45 469.112h8.232v22.02h-8.233z"/><path fill="#a5e708" d="M246.16 445.36h8.233v45.77h-8.233zM235.784 450.478h8.233v40.307h-8.233zM225.45 469.112h8.232v22.02h-8.233zM256.743 449.314h8.233V490.9h-8.233z"/><path fill="#b3a20e" d="M246.16 471.347h8.233v3.313h-8.233zM235.784 473.362h8.233v2.918h-8.233zM225.45 481.613h8.232v2.913h-8.233zM256.743 472.924h8.233v3.01h-8.233zM246.16 445.36h8.233v3.314h-8.233zM235.784 450.478h8.233v2.918h-8.233zM225.45 469h8.232v2.92h-8.233zM256.743 449.314h8.233v3.01h-8.233zM264.976 462.852l2.98-.788-.043 5.514-2.937.908v-5.634zM222.688 479.26l2.76 1.153v-4.347l-2.76-1.19v4.384zM233.012 462.112l2.76 1.153v-4.346l-2.76-1.193v4.385z"/></g><g><path d="M493.016 495.924l52.654-.482s-1.516 13.047 11.268 30.72c1.636 2.26-.27 4.376-.27 4.376H430.437s-1.624-1.507 0-3.785c12.695-17.796 11.114-30.83 11.114-30.83h51.466z" fill="#f6f6f6"/><path d="M441.55 495.894l104.093-.115s-.365 7.11 2.92 14.993c1.753 4.21-107.165-9.537-107.02-11.494.15-2.04.007-3.386.007-3.386z" fill="#969696" fill-opacity=".502"/><path d="M661.327 268.962H331.46c-8.59 0-15.62 7.03-15.62 15.62v195.772c0 8.59 7.03 15.62 15.62 15.62h329.867c8.59 0 15.62-7.03 15.62-15.62V284.58c0-8.59-7.03-15.618-15.62-15.618" fill="#f6f6f6" fill-rule="nonzero"/><path fill="#ffdbd7" d="M333.335 286.273h326.8v172h-326.8z"/><path fill="#fff" fill-opacity=".843" d="M410.87 325.088h171.127v99.268H410.87z"/><path fill="#898989" d="M410.87 325.088h42.848v99.268H410.87z"/><path fill="#c2c2c2" d="M410.87 336h42.848v15.578H410.87z"/><path d="M417.94 339.314a3.614 3.614 0 1 1 0 7.228 3.614 3.614 0 0 1 0-7.228z" fill="#f1f1f1"/><path d="M417.94 341.266c.46 0 .835.456.835 1.018s-.374 1.018-.836 1.018c-.462 0-.837-.456-.837-1.018s.375-1.018.836-1.018zM417.946 343.302c.814 0 1.473.725 1.473 1.62 0 .894-.66 1.62-1.474 1.62s-1.473-.726-1.473-1.62c0-.895.66-1.62 1.473-1.62zM425.03 339.314h9.208v1.952h-9.207zM425.03 343.03h24.918v1.892H425.03zM425.03 346.54h7.264v1.723h-7.263z" fill="#d6d6d6"/><path fill="#999" d="M410.87 352.65h42.848v15.577H410.87z"/><path d="M417.94 355.963a3.614 3.614 0 1 1 0 7.228 3.614 3.614 0 0 1 0-7.227z" fill="#f1f1f1"/><path d="M417.94 357.915c.46 0 .835.456.835 1.018 0 .563-.374 1.018-.836 1.018-.462 0-.837-.454-.837-1.017 0-.562.375-1.018.836-1.018z" fill="#d6d6d6"/><path d="M417.946 359.95c.814 0 1.473.726 1.473 1.62 0 .896-.66 1.62-1.474 1.62s-1.473-.724-1.473-1.62c0-.894.66-1.62 1.473-1.62zM425.03 355.963h9.208v1.952h-9.207z" fill="#d6d6d6"/><g><path fill="#d6d6d6" d="M425.03 359.678h24.918v1.893H425.03z"/></g><g><path fill="#d6d6d6" d="M425.03 363.19h7.264v1.723h-7.263z"/></g><g><path fill="#999" d="M410.87 369.41h42.848v15.578H410.87z"/><path d="M417.94 372.724a3.614 3.614 0 1 1 0 7.228 3.614 3.614 0 0 1 0-7.228z" fill="#f1f1f1"/><path d="M417.94 374.676c.46 0 .835.456.835 1.018 0 .563-.374 1.018-.836 1.018-.462 0-.837-.455-.837-1.018 0-.562.375-1.018.836-1.018zM417.946 376.712c.814 0 1.473.725 1.473 1.62 0 .894-.66 1.62-1.474 1.62s-1.473-.726-1.473-1.62c0-.895.66-1.62 1.473-1.62zM425.03 372.724h9.208v1.952h-9.207z" fill="#d6d6d6"/><g><path fill="#d6d6d6" d="M425.03 376.44h24.918v1.892H425.03z"/></g><g><path fill="#d6d6d6" d="M425.03 379.952h7.264v1.722h-7.263z"/></g></g><g><path fill="#999" d="M410.87 386.354h42.848v15.578H410.87z"/><path d="M417.94 389.668a3.614 3.614 0 1 1 0 7.228 3.614 3.614 0 0 1 0-7.228z" fill="#f1f1f1"/><path d="M417.94 391.62c.46 0 .835.456.835 1.018s-.374 1.018-.836 1.018c-.462 0-.837-.456-.837-1.018s.375-1.018.836-1.018zM417.946 393.656c.814 0 1.473.725 1.473 1.62 0 .894-.66 1.62-1.474 1.62s-1.473-.726-1.473-1.62c0-.895.66-1.62 1.473-1.62zM425.03 389.668h9.208v1.952h-9.207z" fill="#d6d6d6"/><g><path fill="#d6d6d6" d="M425.03 393.383h24.918v1.893H425.03z"/></g><g><path fill="#d6d6d6" d="M425.03 396.895h7.264v1.722h-7.263z"/></g></g><g><path fill="#999" d="M410.87 403.142h42.848v15.578H410.87z"/><path d="M417.94 406.456a3.614 3.614 0 1 1 0 7.228 3.614 3.614 0 0 1 0-7.228z" fill="#f1f1f1"/><path d="M417.94 408.408c.46 0 .835.456.835 1.018 0 .563-.374 1.018-.836 1.018-.462 0-.837-.455-.837-1.018 0-.562.375-1.018.836-1.018zM417.946 410.444c.814 0 1.473.725 1.473 1.62 0 .894-.66 1.62-1.474 1.62s-1.473-.726-1.473-1.62c0-.895.66-1.62 1.473-1.62zM425.03 406.456h9.208v1.952h-9.207z" fill="#d6d6d6"/><g><path fill="#d6d6d6" d="M425.03 410.17h24.918v1.894H425.03z"/></g><g><path fill="#d6d6d6" d="M425.03 413.684h7.264v1.722h-7.263z"/></g></g><g><path d="M414.736 326.78a1.253 1.253 0 1 1 0 2.506 1.253 1.253 0 0 1 0-2.506z" fill="#f3f3f3" fill-opacity=".6"/></g><g><path d="M418.575 326.78a1.254 1.254 0 1 1 0 2.508 1.254 1.254 0 0 1 0-2.508z" fill="#f3f3f3" fill-opacity=".6"/></g><g><path d="M422.415 326.78a1.253 1.253 0 1 1 0 2.506 1.253 1.253 0 0 1 0-2.506z" fill="#f3f3f3" fill-opacity=".6"/></g><g><path fill="#fff" fill-opacity=".796" d="M333.335 286.273h326.8v5.465h-326.8z"/></g></g><g><path d="M399.316 523.487h142.398l6.184 7.11H390.093l9.223-7.11z" fill="#cfcfcf"/></g><g><path d="M641.457 508.746c21.856-.366 27.265 21.846 15.92 21.762-53.874-.4 16.23-.214-31.297 0-11.346.05-6.313-21.4 15.377-21.762z" fill="#fff"/></g><g><path fill="#f3f3f3" d="M302.65 478.73h39.028v51.82H302.65z"/><path d="M341.833 494.85h6.39v17.928h-6.39v6.686s11.16 3.94 12.782 0c2.13-5.175 2.13-25.878 0-31.054-1.62-3.94-12.782 0-12.782 0v6.44z" fill="#f0f0f0"/><path fill="#ececec" d="M302.65 525.51h39.028v5.04H302.65zM337.815 478.73h3.863v46.78h-3.863z"/><path d="M343.55 487.827l-2.717.583v6.46h2.717v-7.043zM343.55 512.786h-2.717c-.022 2.123-.192 3.495 0 6.593l2.717.66v-7.254z" fill="#ececec"/></g><g><path fill="#fff" d="M721.334 173.9H892.41v138.35H721.333z"/><path fill="#98bff9" d="M743.55 198.745h125.89v88.38H743.55z"/><path fill="#001e4b" fill-opacity=".196" d="M743.55 198.745h125.89v2.05H743.55zM743.55 200.796h1.977v86.328h-1.977z"/><path d="M770.575 209.252c9.025 0 16.34 7.316 16.34 16.34 0 9.026-7.315 16.342-16.34 16.342-9.025 0-16.34-7.316-16.34-16.34 0-9.026 7.315-16.342 16.34-16.342z" fill="#ffd606"/><g fill-opacity=".89" fill-rule="nonzero"><path d="M816.758 247.884l7.263-8.364 19.37-2.64 5.282 8.583 8.143 4.402 8.144 28.832-11.886 4.182-19.15-2.202-22.45.88-3.3-13.205 4.842-2.862 1.54-17.166 2.202-.44z" fill="#e7e8e9"/><path d="M811.385 281.764l-2.754-10.903 4.14 3.436 9.905-1.198 4.645 8.184-15.935.482z" fill="#a7a9ac"/><path d="M822.675 273.1h31.914l4.327-15.178 5.9 20.886-11.743 4.07-21.595-1.76-4.16.164-4.645-8.183z" fill="#bcbec0"/></g><path d="M792.398 198.745l-48.848 48.848v36.644l85.492-85.492h-36.644z" fill="#fff" fill-opacity=".498"/><path d="M721.334 312.25l9.863 3.544 166.552-.18-.135-135.45-5.206-6.265v138.35H721.333z" fill="#015e40" fill-opacity=".2"/></g><g><path fill="#f6f6f6" d="M718.14 513.728h95.79v16.822h-95.79z"/><path d="M727.953 513.728h85.978v16.822l-81.047-12.858-4.93-3.964z" fill="#d8dbdf"/><path fill="#fff" d="M746.64 501.455h77.803v12.273H746.64z"/><path fill="#001e4b" d="M727.953 501.455h18.687v12.273h-18.687z"/><path fill="#f2af0d" d="M762.342 496.902h47.7v4.554h-47.7z"/><path fill="#d8dbdf" d="M757.12 496.902h5.222v4.554h-5.22z"/><path d="M810.043 496.902l6.347 2.277-6.347 2.275v-4.553z" fill="#eecd81"/><path d="M814.192 498.38v1.595l2.198-.796-2.198-.8z" fill="#001e4b"/></g></svg>