<svg xmlns="http://www.w3.org/2000/svg" width="120" height="228" fill-rule="evenodd" clip-rule="evenodd" stroke-linejoin="round" stroke-miterlimit="1.414"><path fill="#fff8be" fill-opacity=".502" d="M0 0h120v70H0z"/><path fill="#bebebe" fill-opacity=".498" d="M22.582 51.615h74.376v4.836H22.582z"/><path d="M47.616 24.54l4.44-5.112L63.9 17.813l3.228 5.248 4.98 2.692 4.978 17.628-7.267 2.557L58.11 44.59l-13.725.54-2.02-8.075 2.962-1.75.94-10.495 1.346-.27z" fill="#b7b7b7" fill-rule="nonzero"/><path fill="#f2f2f2" fill-opacity=".498" d="M-.29 74.746h120v24h-120z"/><path fill="#d5d5d5" d="M4.987 78.95h23.62v2.976H4.987zM5.13 83.563H45.51v2.975H5.13zM5.057 91.488h40.377v2.975H5.057zM104.707 77.326h12.217V80.3h-12.217z"/><path fill="#f2f2f2" fill-opacity=".498" d="M-.29 100.36h120v24h-120z"/><path fill="#d5d5d5" d="M4.987 104.567h23.62v2.975H4.987zM5.13 109.18H45.51v2.974H5.13zM5.057 117.104h40.377v2.975H5.057zM104.707 102.942h12.217v2.975h-12.217z"/><g><path fill="#f2f2f2" fill-opacity=".498" d="M-.29 125.977h120v24h-120z"/><path fill="#d5d5d5" d="M4.987 130.183h23.62v2.975H4.987zM5.13 134.795H45.51v2.975H5.13zM5.057 142.72h40.377v2.975H5.057zM104.707 128.558h12.217v2.975h-12.217z"/></g><g><path fill="#f2f2f2" fill-opacity=".498" d="M-.29 151.593h120v24h-120z"/><path fill="#d5d5d5" d="M4.987 155.8h23.62v2.974H4.987zM5.13 160.41H45.51v2.975H5.13zM5.057 168.336h40.377v2.975H5.057zM104.707 154.173h12.217v2.975h-12.217z"/></g><g><path fill="#f2f2f2" fill-opacity=".498" d="M-.29 177.21h120v24h-120z"/><path fill="#d5d5d5" d="M4.987 181.415h23.62v2.975H4.987zM5.13 186.026H45.51V189H5.13zM5.057 193.95h40.377v2.976H5.057zM104.707 179.79h12.217v2.974h-12.217z"/></g><g><path fill="#f2f2f2" fill-opacity=".498" d="M-.29 202.824h120v24h-120z"/><path fill="#d5d5d5" d="M4.987 207.03h23.62v2.975H4.987zM5.13 211.642H45.51v2.975H5.13zM5.057 219.567h40.377v2.975H5.057zM104.707 205.405h12.217v2.975h-12.217z"/></g><g><path fill="#d5d5d5" d="M5.145 5.512h23.62v2.975H5.145z"/></g><g><path fill="#d5d5d5" d="M103.667 4.785h12.217V7.76h-12.217z"/></g></svg>